<svg version="1.1" xmlns="http://www.w3.org/2000/svg" viewBox="0 0 1460.1867162333244 872.830096761858" width="1460.1867162333244" height="872.830096761858">
  <!-- svg-source:excalidraw -->
  
  <defs>
    <style class="style-fonts">
      @font-face {
        font-family: "Virgil";
        src: url("https://excalidraw.com/Virgil.woff2");
      }
      @font-face {
        font-family: "Cascadia";
        src: url("https://excalidraw.com/Cascadia.woff2");
      }
    </style>
    
  </defs>
  <g stroke-linecap="round" transform="translate(798.9934885417601 663.2490403565073) rotate(0 95.77483417409906 99.79052820267538)"><path d="M7.86 8.16 C7.86 8.16, 7.86 8.16, 7.86 8.16 M7.86 8.16 C7.86 8.16, 7.86 8.16, 7.86 8.16 M3.66 19.09 C7.51 12.88, 9.97 8.2, 18.1 2.48 M3.66 19.09 C7.57 14.97, 9.15 13.49, 18.1 2.48 M2.75 26.24 C10.58 16.83, 15.1 10.16, 24.4 1.33 M2.75 26.24 C6.88 19.83, 11.49 14.46, 24.4 1.33 M2.48 32.64 C10.35 23.42, 13.68 18.84, 30.7 0.18 M2.48 32.64 C11.49 22.89, 19.65 12.69, 30.7 0.18 M2.88 38.28 C13.03 28.79, 20.39 18.36, 34.37 2.05 M2.88 38.28 C12.56 26.87, 20.53 17.55, 34.37 2.05 M2.62 44.68 C13.11 32.67, 26.21 17, 39.36 2.41 M2.62 44.68 C13.42 32.13, 25.66 18.37, 39.36 2.41 M2.36 51.07 C15.95 36.04, 27.92 19.88, 45 2.02 M2.36 51.07 C11.09 39.69, 21.15 28.6, 45 2.02 M2.75 56.72 C14.21 41.43, 26.07 28.4, 49.99 2.38 M2.75 56.72 C14.44 43.53, 25.09 30.74, 49.99 2.38 M2.49 63.11 C21.87 40.64, 40.39 20.28, 55.63 1.98 M2.49 63.11 C19.09 42.54, 37.87 22.21, 55.63 1.98 M2.23 69.51 C18.25 52.7, 35.46 32.58, 60.62 2.34 M2.23 69.51 C21.51 47.85, 41.09 24.54, 60.62 2.34 M2.62 75.16 C24.49 47.42, 50.58 21.61, 66.26 1.95 M2.62 75.16 C20.47 55.87, 37.39 34.73, 66.26 1.95 M2.36 81.55 C30.76 50.68, 57.71 19.74, 71.25 2.31 M2.36 81.55 C20.43 60.23, 39.33 40.25, 71.25 2.31 M2.1 87.95 C23 65.96, 42.22 41.41, 76.89 1.91 M2.1 87.95 C22.87 63.68, 43.95 41.82, 76.89 1.91 M2.49 93.59 C23.33 68.54, 45.46 44.79, 81.88 2.27 M2.49 93.59 C23.05 69.43, 44.4 45.56, 81.88 2.27 M2.23 99.99 C32.67 62.03, 66.8 26.03, 87.52 1.88 M2.23 99.99 C24.38 73.58, 48.96 46.44, 87.52 1.88 M2.63 105.64 C31.65 73.15, 63.06 37.34, 92.51 2.24 M2.63 105.64 C37.35 66.66, 72.63 26.68, 92.51 2.24 M2.37 112.03 C34.34 75.86, 64.97 39.21, 97.49 2.6 M2.37 112.03 C24.26 87.21, 45.47 63.39, 97.49 2.6 M2.1 118.43 C34.55 79.91, 70.94 41.64, 103.14 2.21 M2.1 118.43 C32.07 83.73, 62 48.54, 103.14 2.21 M2.5 124.07 C43.97 76.14, 82.68 32.51, 108.12 2.57 M2.5 124.07 C38.7 80.78, 75.68 37.34, 108.12 2.57 M2.24 130.47 C40.58 88.17, 74.1 47.95, 113.77 2.17 M2.24 130.47 C27.67 99.24, 53.8 68.24, 113.77 2.17 M1.98 136.87 C46.41 90.52, 86.57 41.89, 118.76 2.53 M1.98 136.87 C39.03 93.36, 75.83 51.92, 118.76 2.53 M2.37 142.51 C40.1 97.76, 81.55 52.98, 124.4 2.14 M2.37 142.51 C37.77 100.37, 73.39 59.65, 124.4 2.14 M2.11 148.91 C29.17 119.3, 57.34 87.36, 129.39 2.5 M2.11 148.91 C33.21 111.88, 65.39 74.77, 129.39 2.5 M2.5 154.55 C56.04 93.22, 108.01 35.26, 135.03 2.1 M2.5 154.55 C41 111.5, 78.02 67.58, 135.03 2.1 M2.24 160.95 C50.71 102.45, 102.91 47.02, 140.02 2.46 M2.24 160.95 C44.17 113.48, 86.43 63.24, 140.02 2.46 M1.33 168.1 C31.93 130.48, 66.18 96.07, 145 2.82 M1.33 168.1 C46.45 115.58, 90.8 65.01, 145 2.82 M1.72 173.75 C45.71 125.46, 89.9 73.66, 150.65 2.43 M1.72 173.75 C52.2 115.17, 104.47 57.06, 150.65 2.43 M2.77 178.64 C54.37 118.97, 103.84 61.84, 155.63 2.79 M2.77 178.64 C34.07 143.26, 65.08 109.33, 155.63 2.79 M3.82 183.52 C59.83 121.04, 114.26 56.68, 161.28 2.39 M3.82 183.52 C67.74 111.77, 130.93 38.88, 161.28 2.39 M5.53 187.66 C44.42 144.03, 82.26 98.6, 167.57 1.24 M5.53 187.66 C45.02 141.79, 84.56 95.57, 167.57 1.24 M7.89 191.04 C72.72 120.02, 135.8 46.02, 171.91 2.36 M7.89 191.04 C44.73 145.94, 82.04 103.75, 171.91 2.36 M10.91 193.66 C64.37 134.03, 114.85 74.47, 176.24 3.47 M10.91 193.66 C58.27 138.58, 106.02 83.79, 176.24 3.47 M13.93 196.28 C61.99 140.75, 110.3 88.05, 179.91 5.34 M13.93 196.28 C79.82 121.95, 144.44 47.73, 179.91 5.34 M18.26 197.4 C70.44 136.66, 124.78 75.78, 182.93 7.97 M18.26 197.4 C55.86 158.05, 91.61 116.18, 182.93 7.97 M22.59 198.51 C64.09 150.99, 103.82 105.89, 185.95 10.59 M22.59 198.51 C76.11 137.25, 131.79 72.83, 185.95 10.59 M27.58 198.87 C74.85 147.43, 121.03 93.86, 188.31 13.97 M27.58 198.87 C73.5 147.84, 118.93 95.78, 188.31 13.97 M31.91 199.99 C82.66 143.52, 132.79 88.38, 190.02 18.1 M31.91 199.99 C83.72 139.83, 134.41 82.12, 190.02 18.1 M37.55 199.59 C71.86 160.04, 102.97 120.08, 190.41 23.75 M37.55 199.59 C92.23 134.5, 149.41 70.04, 190.41 23.75 M42.54 199.95 C72.85 162.82, 106.78 124.71, 191.46 28.64 M42.54 199.95 C88.99 147.46, 135.42 94.47, 191.46 28.64 M48.18 199.56 C102.71 137.59, 157.51 72.1, 193.17 32.77 M48.18 199.56 C96.81 144.36, 143.25 89.85, 193.17 32.77 M53.17 199.92 C102.67 143.88, 147.44 90.58, 192.91 39.17 M53.17 199.92 C88.72 157.63, 125.13 116.24, 192.91 39.17 M58.81 199.53 C90.38 164.61, 121.67 129.32, 192.65 45.56 M58.81 199.53 C92.56 159.98, 127.9 120.25, 192.65 45.56 M63.8 199.89 C111.73 144.55, 161.09 87.37, 193.04 51.21 M63.8 199.89 C93.9 167.56, 121.28 134.85, 193.04 51.21 M69.44 199.49 C102.43 159.05, 140.62 117.13, 192.78 57.61 M69.44 199.49 C95.01 169.22, 122.28 137.53, 192.78 57.61 M74.43 199.85 C107.89 165.28, 140.26 128.25, 193.18 63.25 M74.43 199.85 C108.4 161.14, 139 123.81, 193.18 63.25 M80.07 199.46 C107.68 166.47, 135 134.55, 192.91 69.65 M80.07 199.46 C113.45 162.1, 146.41 125.06, 192.91 69.65 M85.06 199.82 C109.8 168.62, 135.22 138.99, 192.65 76.04 M85.06 199.82 C124.22 154.37, 164.51 108.12, 192.65 76.04 M90.7 199.42 C119.32 167.46, 150.5 134.49, 193.05 81.69 M90.7 199.42 C125.8 160.5, 160.44 119.56, 193.05 81.69 M95.69 199.78 C132.79 157.62, 165.15 117.92, 192.79 88.09 M95.69 199.78 C123.79 166.55, 151.73 135.32, 192.79 88.09 M101.33 199.39 C132.84 163.91, 162.18 128.13, 193.18 93.73 M101.33 199.39 C126.32 170.16, 150.21 142.53, 193.18 93.73 M106.32 199.75 C126.33 179.05, 145.78 155.35, 192.92 100.13 M106.32 199.75 C131.5 170.85, 157.67 141.72, 192.92 100.13 M111.96 199.35 C129.86 181.52, 146.16 160.76, 192.66 106.52 M111.96 199.35 C139.72 166.9, 166.87 135.81, 192.66 106.52 M116.95 199.71 C137.89 178.09, 153.81 153.04, 193.05 112.17 M116.95 199.71 C135.48 178.76, 152.24 159.06, 193.05 112.17 M121.94 200.07 C142.92 173.83, 165.44 150.21, 192.79 118.56 M121.94 200.07 C141.51 178.88, 158.18 159.08, 192.79 118.56 M127.58 199.68 C152.79 171.74, 177.81 141.86, 192.53 124.96 M127.58 199.68 C147.16 175.88, 168.19 151.86, 192.53 124.96 M132.57 200.04 C149.58 179.34, 169.94 158.52, 192.92 130.61 M132.57 200.04 C148.94 180.27, 164.33 162.72, 192.92 130.61 M138.21 199.64 C158.42 176.07, 181.06 152.14, 192.66 137 M138.21 199.64 C154.44 182.14, 168.75 163.24, 192.66 137 M143.2 200 C153.95 188.59, 164.51 174.44, 193.06 142.65 M143.2 200 C156.93 182.15, 172.33 164.94, 193.06 142.65 M148.84 199.61 C164.78 184.97, 176.11 165.76, 192.8 149.04 M148.84 199.61 C158.88 187.21, 169.67 175.85, 192.8 149.04 M153.83 199.97 C166.48 183.03, 180.13 168.41, 192.53 155.44 M153.83 199.97 C161.74 191.34, 170.54 181.52, 192.53 155.44 M159.47 199.58 C169.11 188.02, 179.08 176.37, 192.93 161.08 M159.47 199.58 C166.34 191.68, 172.63 184.08, 192.93 161.08 M162.49 202.2 C175.39 188.99, 186.68 175.21, 192.01 168.24 M162.49 202.2 C172 192.54, 179.71 181.12, 192.01 168.24 M168.79 201.05 C172.8 194.31, 178.22 190.85, 191.09 175.39 M168.79 201.05 C173.73 194.23, 179.24 190.34, 191.09 175.39 M179.02 195.37 C183.18 190.69, 185.18 188.52, 190.18 182.54 M179.02 195.37 C181.11 191.83, 185.13 188.16, 190.18 182.54" stroke="#fff9db" stroke-width="0.5" fill="none"></path><path d="M32 0 M32 0 C61.59 1.82, 92.85 -1.47, 159.55 0 M32 0 C61.58 0.65, 91.38 1.14, 159.55 0 M159.55 0 C179.84 1.15, 192.3 8.94, 191.55 32 M159.55 0 C180.95 1.64, 192.85 12.51, 191.55 32 M191.55 32 C192.29 69.68, 192.12 111.75, 191.55 167.58 M191.55 32 C192.11 81.41, 191.43 131.94, 191.55 167.58 M191.55 167.58 C189.81 187.3, 180.1 201.43, 159.55 199.58 M191.55 167.58 C191.33 188.83, 182.67 201.6, 159.55 199.58 M159.55 199.58 C113.07 200.7, 69.05 198.35, 32 199.58 M159.55 199.58 C118.98 199.66, 78.63 199.9, 32 199.58 M32 199.58 C12.44 200.43, -1.05 190.62, 0 167.58 M32 199.58 C11.31 201.38, -0.08 186.78, 0 167.58 M0 167.58 C-1.42 131.54, 0.55 95.4, 0 32 M0 167.58 C-0.67 119.76, 0.67 72.53, 0 32 M0 32 C-1.25 11.95, 12.18 0.45, 32 0 M0 32 C-1.9 10.22, 9.49 1.73, 32 0" stroke="#2f9e44" stroke-width="1" fill="none"></path></g><g mask="url(#mask-J9F0y6pxztOQupyK9TTqy)" stroke-linecap="round"><g transform="translate(906.878071126818 304.1992938264806) rotate(0 0.7534264292454509 154.42447575522118)"><path d="M-0.28 0 C-0.2 15.05, -0.64 39.65, -0.27 91.12 C0.1 142.6, 1.77 272.82, 1.93 308.85" stroke="#f08c00" stroke-width="1.5" fill="none" stroke-dasharray="8 9"></path></g><g transform="translate(906.878071126818 304.1992938264806) rotate(0 0.7534264292454509 154.42447575522118)"><path d="M-8.59 280.3 C-6.18 288.95, -1.68 293.56, 1.13 309.52" stroke="#f08c00" stroke-width="1.5" fill="none"></path></g><g transform="translate(906.878071126818 304.1992938264806) rotate(0 0.7534264292454509 154.42447575522118)"><path d="M11.93 280.12 C9.47 288.76, 9.1 293.42, 1.13 309.52" stroke="#f08c00" stroke-width="1.5" fill="none"></path></g></g><mask id="mask-J9F0y6pxztOQupyK9TTqy"><rect x="0" y="0" fill="#fff" width="1007.9053059326725" height="712.0137983248263"></rect><rect x="868.0981181238883" y="382.98581130603907" fill="#000" width="77.55990600585938" height="25" opacity="1"></rect></mask><g stroke-opacity="0.5" fill-opacity="0.5" transform="translate(868.0981181238883 382.9858113060392) rotate(0 39.53337943217514 75.6379582756627)"><text x="38.77995300292969" y="0" font-family="Virgil, Segoe UI Emoji" font-size="20px" fill="#f08c00" text-anchor="middle" style="white-space: pre;" direction="ltr" dominant-baseline="text-before-edge">provides</text></g><g stroke-opacity="0.5" fill-opacity="0.5" stroke-linecap="round" transform="translate(10 168.3894775165288) rotate(0 267.9474357522978 189.3165311597274)"><path d="M7.86 8.16 C7.86 8.16, 7.86 8.16, 7.86 8.16 M7.86 8.16 C7.86 8.16, 7.86 8.16, 7.86 8.16 M3.66 19.09 C7.57 12.47, 14.56 5.68, 18.1 2.48 M3.66 19.09 C6.34 14.77, 10.44 10.6, 18.1 2.48 M2.75 26.24 C7.82 22.47, 12.99 17.46, 24.4 1.33 M2.75 26.24 C6.58 20.88, 12.08 16.44, 24.4 1.33 M1.83 33.39 C11.48 21.74, 23.93 6.51, 30.7 0.18 M1.83 33.39 C13.47 20.24, 25.22 6.85, 30.7 0.18 M1.57 39.79 C14.63 25.58, 26.68 11.36, 34.37 2.05 M1.57 39.79 C9.43 32.85, 15.03 24.37, 34.37 2.05 M1.96 45.43 C13.1 32.04, 24.44 19.39, 39.36 2.41 M1.96 45.43 C11.05 36.02, 20.44 25.11, 39.36 2.41 M1.7 51.83 C15.08 40.11, 23.72 25.14, 45 2.02 M1.7 51.83 C15.29 37.38, 28.14 21.34, 45 2.02 M1.44 58.23 C14.8 41.55, 28.85 29.92, 49.99 2.38 M1.44 58.23 C11.66 46.16, 21.68 34.72, 49.99 2.38 M1.83 63.87 C17.36 45.42, 29.81 30.25, 55.63 1.98 M1.83 63.87 C18.31 47.44, 32.69 28.94, 55.63 1.98 M1.57 70.27 C18.57 49.1, 35.63 27.76, 60.62 2.34 M1.57 70.27 C18.56 51.85, 35 34.14, 60.62 2.34 M1.97 75.91 C20.26 54.97, 40.37 31.27, 66.26 1.95 M1.97 75.91 C15.52 59.57, 30.26 43.34, 66.26 1.95 M1.71 82.31 C27.84 53.54, 50.44 24.86, 71.25 2.31 M1.71 82.31 C22.29 58.18, 43.78 35.11, 71.25 2.31 M1.44 88.71 C22.81 65.51, 45.37 37.57, 76.89 1.91 M1.44 88.71 C31.31 54.91, 60.18 20.13, 76.89 1.91 M1.84 94.35 C27.74 61.81, 53.92 33.01, 81.88 2.27 M1.84 94.35 C21.92 69.08, 43.09 44.18, 81.88 2.27 M1.58 100.75 C36.59 60.13, 69.1 25.12, 87.52 1.88 M1.58 100.75 C34.33 64.19, 67.33 26.42, 87.52 1.88 M1.97 106.39 C31.3 71.31, 63.13 39.7, 92.51 2.24 M1.97 106.39 C21.98 80.41, 43.81 54.75, 92.51 2.24 M1.71 112.79 C22.33 89.78, 45.49 63.96, 98.15 1.85 M1.71 112.79 C39.45 71.22, 75.72 27.28, 98.15 1.85 M1.45 119.19 C21.91 93.47, 43.17 72.28, 103.14 2.21 M1.45 119.19 C22.5 93.37, 45.62 66.65, 103.14 2.21 M1.84 124.83 C38.99 81.02, 74.97 38.4, 108.78 1.81 M1.84 124.83 C36.84 85.73, 68.5 47.38, 108.78 1.81 M1.58 131.23 C47.22 82.08, 90.32 32.14, 113.77 2.17 M1.58 131.23 C33.27 95.94, 63.42 60.03, 113.77 2.17 M1.98 136.87 C33.74 103.51, 62.94 67.3, 119.41 1.78 M1.98 136.87 C30.65 104.05, 60.05 69.86, 119.41 1.78 M1.72 143.27 C34.79 102.9, 65.11 65.34, 124.4 2.14 M1.72 143.27 C26.6 111.76, 53.14 82.35, 124.4 2.14 M1.45 149.67 C43.46 101.78, 86.89 50.81, 130.04 1.74 M1.45 149.67 C27.68 117.63, 55.09 84.36, 130.04 1.74 M1.85 155.31 C33.42 117.88, 63.9 79.4, 135.03 2.1 M1.85 155.31 C42.44 108.06, 84.4 60.55, 135.03 2.1 M1.59 161.71 C44.01 115.6, 84.39 67.99, 140.67 1.71 M1.59 161.71 C32.56 127.34, 62.16 93.85, 140.67 1.71 M1.98 167.35 C33.82 132.57, 64.95 95.98, 145.66 2.07 M1.98 167.35 C57.2 102.79, 112.74 39.04, 145.66 2.07 M1.72 173.75 C58.15 107.14, 117.18 39.46, 150.65 2.43 M1.72 173.75 C53.15 113.02, 106.88 52.13, 150.65 2.43 M1.46 180.14 C54.35 119.25, 106.75 59.85, 156.29 2.03 M1.46 180.14 C53.1 120.75, 105.37 60.66, 156.29 2.03 M1.85 185.79 C61.03 118.46, 119.9 52.81, 161.28 2.39 M1.85 185.79 C62.08 117.73, 121.46 49.22, 161.28 2.39 M1.59 192.19 C45.02 141.53, 86.24 91.8, 166.92 2 M1.59 192.19 C64.44 120.43, 128.66 46.99, 166.92 2 M1.99 197.83 C53.5 136.35, 108.47 73.88, 171.91 2.36 M1.99 197.83 C50.19 143.82, 98.9 88.97, 171.91 2.36 M1.72 204.23 C43.45 154.13, 90.21 103.49, 177.55 1.96 M1.72 204.23 C42.73 160.44, 80.88 116.23, 177.55 1.96 M1.46 210.62 C40.24 166.27, 78.31 120.96, 182.54 2.32 M1.46 210.62 C58.62 144.29, 115.47 78.86, 182.54 2.32 M1.86 216.27 C60.87 148.73, 119.97 79.64, 188.18 1.93 M1.86 216.27 C57.97 154.41, 113.64 90.83, 188.18 1.93 M1.6 222.66 C43.95 174.62, 84.17 127.05, 193.17 2.29 M1.6 222.66 C43.54 175.54, 84.44 128.8, 193.17 2.29 M1.99 228.31 C54.79 165.88, 107.6 106.32, 198.81 1.9 M1.99 228.31 C62.65 160.18, 121.69 91.36, 198.81 1.9 M1.73 234.71 C69.75 157.78, 134.88 80.21, 203.8 2.26 M1.73 234.71 C62.96 164.04, 124.31 92.36, 203.8 2.26 M1.47 241.1 C54.22 181.43, 106.67 121.38, 209.44 1.86 M1.47 241.1 C65.47 169.4, 128.88 96.19, 209.44 1.86 M1.86 246.75 C72.49 166.35, 144.42 83.45, 214.43 2.22 M1.86 246.75 C55.27 188.28, 107.35 127.78, 214.43 2.22 M1.6 253.14 C47.93 198.3, 94.66 145.61, 220.07 1.83 M1.6 253.14 C46.28 202.56, 90.84 151.85, 220.07 1.83 M2 258.79 C68.97 182.52, 135.13 105.81, 225.06 2.19 M2 258.79 C65.34 188.92, 126.08 117.88, 225.06 2.19 M1.73 265.19 C56.1 199.15, 113.01 134.44, 230.7 1.79 M1.73 265.19 C62.57 197.51, 121.64 128.59, 230.7 1.79 M1.47 271.58 C55.37 207.95, 110.64 143.17, 235.69 2.15 M1.47 271.58 C84.87 178.09, 166.82 84.22, 235.69 2.15 M1.87 277.23 C59.7 211.6, 116.59 144.65, 241.33 1.76 M1.87 277.23 C97.47 167.72, 192.76 57.97, 241.33 1.76 M1.61 283.62 C64.35 212.66, 124.08 141.26, 246.32 2.12 M1.61 283.62 C58.93 220.32, 114.48 155.34, 246.32 2.12 M2 289.27 C53.91 227.24, 106.29 166.15, 251.96 1.72 M2 289.27 C72.66 205.63, 145.08 122.66, 251.96 1.72 M1.74 295.66 C55.64 235.28, 109.63 175.67, 256.95 2.08 M1.74 295.66 C97.37 184.7, 192.56 75.09, 256.95 2.08 M1.48 302.06 C54.7 240.95, 107.91 179.44, 262.59 1.69 M1.48 302.06 C71.29 223.7, 139.1 145.25, 262.59 1.69 M1.87 307.71 C65.69 234.39, 130.31 158.6, 267.58 2.05 M1.87 307.71 C67.81 231.67, 134.33 153.71, 267.58 2.05 M1.61 314.1 C101.75 196.26, 203.04 81.43, 272.56 2.41 M1.61 314.1 C108.39 189.8, 215.68 66.62, 272.56 2.41 M2.01 319.75 C74.76 235.6, 145.7 153.35, 278.21 2.01 M2.01 319.75 C67.74 243.5, 133.61 168.77, 278.21 2.01 M1.74 326.14 C87.28 228.9, 173 130.84, 283.19 2.37 M1.74 326.14 C68.09 249.99, 133.27 175.21, 283.19 2.37 M1.48 332.54 C72.69 251.54, 143.49 170.64, 288.84 1.98 M1.48 332.54 C88.47 232.22, 175.84 132.25, 288.84 1.98 M1.88 338.19 C88.77 240.19, 174.78 141.49, 293.82 2.34 M1.88 338.19 C78.65 251.87, 154.9 164.98, 293.82 2.34 M1.62 344.58 C100.91 227.3, 202.18 111.71, 299.47 1.94 M1.62 344.58 C100.47 229.7, 200.83 115.07, 299.47 1.94 M2.67 349.47 C81.39 259.19, 161.3 169.45, 304.45 2.3 M2.67 349.47 C71.31 271.45, 138.62 193.99, 304.45 2.3 M3.72 354.36 C113.7 227.41, 224.47 100.45, 310.1 1.91 M3.72 354.36 C69.21 278.36, 134.71 202.76, 310.1 1.91 M2.8 361.51 C80.72 270.54, 159.41 180.24, 315.08 2.27 M2.8 361.51 C73.77 279.88, 144.43 198.73, 315.08 2.27 M4.51 365.65 C100.77 255.26, 193.69 147.09, 320.73 1.88 M4.51 365.65 C111.99 243.3, 219.43 120.58, 320.73 1.88 M7.53 368.27 C109.09 250.37, 211.25 132.68, 325.71 2.24 M7.53 368.27 C80.69 285.18, 151.87 202.81, 325.71 2.24 M9.89 371.65 C77.71 293.1, 144.6 215.53, 331.36 1.84 M9.89 371.65 C106.46 261.97, 201.21 153.05, 331.36 1.84 M12.91 374.27 C96.29 279.14, 177.92 184.01, 336.34 2.2 M12.91 374.27 C118.68 251.45, 224.76 129.5, 336.34 2.2 M17.24 375.39 C126.65 250.96, 233.68 126.35, 341.99 1.81 M17.24 375.39 C145.29 229.14, 272.95 82.23, 341.99 1.81 M20.91 377.26 C103.57 282.09, 186.05 187.5, 346.97 2.17 M20.91 377.26 C119.02 264.84, 217.84 152.23, 346.97 2.17 M25.24 378.37 C142.2 243.61, 260.4 110.14, 352.62 1.77 M25.24 378.37 C131.86 252.82, 240.48 128.08, 352.62 1.77 M30.23 378.73 C107.16 290.55, 184.54 200.32, 357.6 2.13 M30.23 378.73 C118.08 278.96, 204.76 180.06, 357.6 2.13 M33.91 380.6 C151.84 247.61, 267.91 112.9, 363.25 1.74 M33.91 380.6 C138.24 259.85, 244.4 138.83, 363.25 1.74 M39.55 380.21 C154.37 247.35, 268.71 116.34, 368.23 2.1 M39.55 380.21 C169.42 230.92, 298.53 82.14, 368.23 2.1 M44.54 380.57 C132.41 280.53, 219.45 179.78, 373.88 1.7 M44.54 380.57 C167.46 236.59, 291.9 93.75, 373.88 1.7 M50.18 380.17 C134.27 285.22, 217.81 189.74, 378.86 2.06 M50.18 380.17 C121.97 298.88, 192.14 217.63, 378.86 2.06 M55.17 380.53 C121.67 303.72, 187.2 228.67, 383.85 2.42 M55.17 380.53 C126.61 299.09, 198.23 217.13, 383.85 2.42 M60.81 380.14 C136 290.16, 212.81 203.53, 389.49 2.03 M60.81 380.14 C164.06 261.2, 266.68 142.58, 389.49 2.03 M65.8 380.5 C177.49 252.22, 289.82 122.96, 394.48 2.39 M65.8 380.5 C187.68 240.57, 308.03 102.11, 394.48 2.39 M71.44 380.1 C167.03 271.52, 261.19 161.83, 400.12 1.99 M71.44 380.1 C146.1 293.13, 221.16 206.58, 400.12 1.99 M76.43 380.46 C152.63 291.8, 230.6 203, 405.11 2.35 M76.43 380.46 C159.77 283.83, 243.65 187.49, 405.11 2.35 M82.07 380.07 C163.18 286.83, 244.89 192.44, 410.75 1.96 M82.07 380.07 C197.39 247.83, 313.42 114.17, 410.75 1.96 M87.06 380.43 C188.94 262.69, 290.17 145.92, 415.74 2.32 M87.06 380.43 C190.54 263.57, 293.08 146.37, 415.74 2.32 M92.04 380.79 C174.81 285.01, 256.67 191.24, 421.38 1.93 M92.04 380.79 C168.95 290.93, 245.93 202.01, 421.38 1.93 M97.69 380.4 C212.95 248.48, 328.89 116.3, 426.37 2.29 M97.69 380.4 C187.95 275.14, 278.28 170.82, 426.37 2.29 M102.67 380.76 C187.82 280.93, 273.66 181.82, 432.01 1.89 M102.67 380.76 C193.66 277.36, 284.9 172.78, 432.01 1.89 M108.32 380.36 C180.54 297.78, 253.55 215.15, 437 2.25 M108.32 380.36 C205.5 271.31, 301.15 160.71, 437 2.25 M113.3 380.72 C234.39 242.24, 354.97 103.57, 442.64 1.86 M113.3 380.72 C190.12 291.46, 267.11 202.37, 442.64 1.86 M118.95 380.33 C235.42 246.76, 351.42 111.83, 447.63 2.22 M118.95 380.33 C186.25 302.17, 253.51 225.1, 447.63 2.22 M123.93 380.69 C211.14 276.44, 300.91 174.61, 453.27 1.82 M123.93 380.69 C231.74 258.03, 337.48 135.33, 453.27 1.82 M129.58 380.29 C212.87 284.69, 296.19 189.48, 458.26 2.18 M129.58 380.29 C217.38 280.25, 305.69 179.46, 458.26 2.18 M134.56 380.65 C267.4 229.01, 397.39 77.71, 463.9 1.79 M134.56 380.65 C234.03 265.71, 334.56 149.78, 463.9 1.79 M140.21 380.26 C269.44 234.51, 397.33 88.06, 468.89 2.15 M140.21 380.26 C217.37 292.84, 294.71 203.91, 468.89 2.15 M145.19 380.62 C273.86 233.15, 403.22 83.18, 474.53 1.75 M145.19 380.62 C213.32 302.21, 281.4 224.18, 474.53 1.75 M150.84 380.22 C249.7 264.93, 348.78 150.82, 479.52 2.11 M150.84 380.22 C238.12 276.77, 327.06 174.49, 479.52 2.11 M155.82 380.58 C231.61 294.67, 305.56 208.99, 485.17 1.72 M155.82 380.58 C223.24 303.9, 289.08 227.29, 485.17 1.72 M161.47 380.19 C266.02 261.89, 369.02 143.34, 490.15 2.08 M161.47 380.19 C240.86 288.81, 319.66 199.05, 490.15 2.08 M166.45 380.55 C256.85 274.22, 348.7 168.27, 495.8 1.68 M166.45 380.55 C271.33 259.86, 376.97 138.98, 495.8 1.68 M172.1 380.15 C238.33 303.64, 305.67 226.64, 500.78 2.04 M172.1 380.15 C242.41 299.34, 311.32 219.44, 500.78 2.04 M177.08 380.51 C263.53 282.76, 347.98 184.81, 506.43 1.65 M177.08 380.51 C290.5 249.6, 404.79 118.74, 506.43 1.65 M182.73 380.12 C288.69 257.38, 394.85 134.36, 512.07 1.25 M182.73 380.12 C302.66 243.16, 421.56 106.28, 512.07 1.25 M187.71 380.48 C283.67 268.35, 380.32 158.44, 516.4 2.37 M187.71 380.48 C295.28 256.44, 401.34 134.61, 516.4 2.37 M193.36 380.08 C291.64 268.37, 389.16 157.02, 520.07 4.24 M193.36 380.08 C281.92 277.9, 370.58 176.03, 520.07 4.24 M198.34 380.44 C271.31 296.89, 344.91 210.81, 524.41 5.35 M198.34 380.44 C277.73 287.27, 357.08 195.49, 524.41 5.35 M203.99 380.05 C308.97 259.37, 415 137.88, 527.42 7.98 M203.99 380.05 C275.45 296.29, 348.1 212.85, 527.42 7.98 M208.97 380.41 C314.4 257.34, 419.09 136.12, 529.79 11.36 M208.97 380.41 C324.31 247.79, 440.28 114.93, 529.79 11.36 M213.96 380.77 C299.18 281.86, 384.05 184.8, 532.81 13.98 M213.96 380.77 C313.89 266.4, 412.32 152.34, 532.81 13.98 M219.6 380.38 C340.49 240.44, 462.69 99.77, 534.51 18.12 M219.6 380.38 C304.33 282.5, 390.36 183.29, 534.51 18.12 M224.59 380.74 C336.68 251.05, 448.86 123.48, 534.91 23.76 M224.59 380.74 C323.73 265.52, 424.14 150.23, 534.91 23.76 M230.23 380.34 C294.68 306.09, 358.48 232.53, 535.96 28.65 M230.23 380.34 C303.61 295.9, 378.26 210.18, 535.96 28.65 M235.22 380.7 C330.51 273.49, 423.04 165.61, 537.01 33.53 M235.22 380.7 C314.81 288.8, 394.09 198.3, 537.01 33.53 M240.86 380.31 C334.65 271.54, 430.65 159.99, 537.4 39.18 M240.86 380.31 C325.86 282.02, 409.85 185.34, 537.4 39.18 M245.85 380.67 C362.44 249.56, 475.66 116.63, 537.14 45.58 M245.85 380.67 C311.39 304.02, 377.86 228.2, 537.14 45.58 M251.49 380.27 C331.67 287.65, 411.62 196.15, 537.54 51.22 M251.49 380.27 C327.57 293.03, 403.5 207.22, 537.54 51.22 M256.48 380.63 C353.95 263.95, 454.17 148.47, 537.27 57.62 M256.48 380.63 C351.55 273.2, 445.01 166.07, 537.27 57.62 M262.12 380.24 C355.76 271.62, 450.22 163.25, 537.01 64.01 M262.12 380.24 C319.27 316.06, 375.03 251.51, 537.01 64.01 M267.11 380.6 C351.7 283.72, 437.5 186.38, 537.41 69.66 M267.11 380.6 C372.52 260.45, 477.12 140.07, 537.41 69.66 M272.75 380.2 C328.3 316.18, 382.67 253.54, 537.15 76.06 M272.75 380.2 C374.59 263.56, 475.66 147.14, 537.15 76.06 M277.74 380.56 C341.07 305.91, 406.91 229.12, 537.54 81.7 M277.74 380.56 C331.96 317.23, 385.98 254.68, 537.54 81.7 M283.38 380.17 C353.63 300.84, 424.18 218.61, 537.28 88.1 M283.38 380.17 C341.99 311.37, 401.36 243.43, 537.28 88.1 M288.37 380.53 C370.12 285.87, 452.02 190.76, 537.02 94.49 M288.37 380.53 C368.54 291.1, 448.4 200.05, 537.02 94.49 M294.01 380.13 C387.94 270.71, 482.02 164.12, 537.41 100.14 M294.01 380.13 C352.49 313.18, 412.2 244.68, 537.41 100.14 M299 380.49 C388.4 277.62, 477.76 174.14, 537.15 106.53 M299 380.49 C355.17 312.94, 413.86 246.77, 537.15 106.53 M304.64 380.1 C369.79 306.16, 434.87 228.98, 537.55 112.18 M304.64 380.1 C364.61 312.66, 423.4 244.3, 537.55 112.18 M309.63 380.46 C397.12 278.03, 484.41 179.1, 537.28 118.58 M309.63 380.46 C359.83 322.93, 408.83 265.24, 537.28 118.58 M315.27 380.07 C390.46 294.56, 465.63 207.6, 537.02 124.97 M315.27 380.07 C396.21 289.87, 474.68 198.81, 537.02 124.97 M320.26 380.43 C368.01 325.06, 418.03 267.7, 537.42 130.62 M320.26 380.43 C382.22 309.94, 441.97 239.78, 537.42 130.62 M325.25 380.79 C375.7 318.86, 428.57 259.55, 537.16 137.01 M325.25 380.79 C370.52 330.37, 416.25 278.67, 537.16 137.01 M330.89 380.39 C401.96 300.92, 472.57 219.34, 537.55 142.66 M330.89 380.39 C405.42 296.4, 479.92 210.63, 537.55 142.66 M335.88 380.75 C397.7 308.56, 458.55 238.16, 537.29 149.06 M335.88 380.75 C399.48 305.62, 463.82 232.64, 537.29 149.06 M341.52 380.36 C386.6 326.27, 434.01 274.66, 537.03 155.45 M341.52 380.36 C383.22 331.45, 424.88 283.65, 537.03 155.45 M346.51 380.72 C416.89 302.24, 487.03 221.62, 537.42 161.1 M346.51 380.72 C410.6 305.72, 474.86 230.46, 537.42 161.1 M352.15 380.32 C421.71 298.41, 493.7 218.65, 537.16 167.49 M352.15 380.32 C404.07 320.69, 458.17 259.59, 537.16 167.49 M357.14 380.68 C406.11 324.99, 454.86 267.48, 537.56 173.14 M357.14 380.68 C425.99 300.4, 495.9 220.13, 537.56 173.14 M362.78 380.29 C421.3 313.26, 480.57 244.48, 537.29 179.53 M362.78 380.29 C404.17 333.02, 445.51 286.71, 537.29 179.53 M367.77 380.65 C432.85 306.51, 498.38 232.05, 537.03 185.93 M367.77 380.65 C425.79 316.52, 482.89 250.47, 537.03 185.93 M373.41 380.25 C412.9 335.91, 450.92 293.45, 537.43 191.58 M373.41 380.25 C409.49 339.26, 445.6 297.2, 537.43 191.58 M378.4 380.61 C426.71 325.51, 474.53 267.21, 537.17 197.97 M378.4 380.61 C425.37 324.08, 474.87 267.66, 537.17 197.97 M384.04 380.22 C417.81 338.82, 455.06 297.41, 537.56 203.62 M384.04 380.22 C416.14 344.62, 447.16 308.15, 537.56 203.62 M389.03 380.58 C440.96 322.21, 494.92 262.85, 537.3 210.01 M389.03 380.58 C445 314.33, 500.95 249.58, 537.3 210.01 M394.67 380.18 C439.46 326.84, 484.92 276.82, 537.04 216.41 M394.67 380.18 C433 336.66, 470.93 294.29, 537.04 216.41 M399.66 380.54 C435.05 341.12, 468.54 302.64, 537.43 222.05 M399.66 380.54 C439.08 334.53, 480.06 288.65, 537.43 222.05 M405.3 380.15 C444.89 334.9, 485.43 288.21, 537.17 228.45 M405.3 380.15 C438.87 342.55, 473.69 302.7, 537.17 228.45 M410.29 380.51 C441.29 344.86, 472.44 308.35, 537.57 234.1 M410.29 380.51 C451.48 333.46, 493.45 287.02, 537.57 234.1 M415.93 380.11 C441.76 349.25, 466.91 321.21, 537.3 240.49 M415.93 380.11 C459.98 327.48, 506.33 276.21, 537.3 240.49 M420.92 380.48 C449.4 350.87, 477 319.11, 537.04 246.89 M420.92 380.48 C448.31 349.19, 474.94 318.08, 537.04 246.89 M426.56 380.08 C460.13 342.26, 493.36 304.94, 537.44 252.53 M426.56 380.08 C470.78 328.35, 514.17 279.52, 537.44 252.53 M431.55 380.44 C472.08 331.61, 515.58 286.76, 537.18 258.93 M431.55 380.44 C463.48 345.24, 494.33 310.54, 537.18 258.93 M436.54 380.8 C477.16 335.84, 518.36 287.3, 537.57 264.58 M436.54 380.8 C457.26 356.39, 477.67 333.01, 537.57 264.58 M442.18 380.41 C473.35 343.39, 506.21 307.25, 537.31 270.97 M442.18 380.41 C470.22 350.48, 497.08 319.74, 537.31 270.97 M447.17 380.77 C468.64 357.18, 489.13 331.43, 537.05 277.37 M447.17 380.77 C475.85 349.54, 501.66 319.03, 537.05 277.37 M452.81 380.37 C470.23 358.76, 485.27 338.26, 537.44 283.01 M452.81 380.37 C477.65 352.83, 502.7 323.88, 537.44 283.01 M457.8 380.73 C481.83 353.62, 504.23 325.49, 537.18 289.41 M457.8 380.73 C479.65 355.4, 502.16 330.7, 537.18 289.41 M463.44 380.34 C488.16 348.33, 517.28 318.27, 537.57 295.05 M463.44 380.34 C485.18 355.71, 507.17 330.73, 537.57 295.05 M468.43 380.7 C490.76 356.5, 510.38 331.02, 537.31 301.45 M468.43 380.7 C491.93 354.44, 514.93 327.76, 537.31 301.45 M474.07 380.3 C490.68 360.81, 506.8 344.59, 537.05 307.85 M474.07 380.3 C498.72 352.22, 523.65 323.34, 537.05 307.85 M479.06 380.66 C490.49 366.27, 504.93 349.94, 537.45 313.49 M479.06 380.66 C501.77 353.71, 523.44 328.47, 537.45 313.49 M484.7 380.27 C503.31 354.33, 526.04 330.74, 537.18 319.89 M484.7 380.27 C505.3 358.41, 523.49 334.1, 537.18 319.89 M489.69 380.63 C500.12 368.67, 510.5 353.83, 537.58 325.53 M489.69 380.63 C507.2 360.8, 521.73 343.33, 537.58 325.53 M495.33 380.23 C503.14 370.41, 512.84 361.62, 537.32 331.93 M495.33 380.23 C511.14 362.78, 526.63 344.79, 537.32 331.93 M500.32 380.59 C511.47 367.98, 518.5 359.25, 537.06 338.33 M500.32 380.59 C507.63 371.28, 516.29 362.71, 537.06 338.33 M505.96 380.2 C517.45 367.99, 527.42 357.88, 537.45 343.97 M505.96 380.2 C515.42 368.57, 525.8 357.56, 537.45 343.97 M511.6 379.8 C516.32 372.02, 524.1 366.7, 538.5 348.86 M511.6 379.8 C516.92 374.52, 522.89 367.09, 538.5 348.86 M519.21 377.15 C526.27 371.15, 529.66 365.95, 537.58 356.01 M519.21 377.15 C523.52 371.82, 526.74 368.7, 537.58 356.01" stroke="#a5d8ff" stroke-width="0.5" fill="none"></path><path d="M32 0 M32 0 C133.65 1.1, 236.36 1.71, 503.89 0 M32 0 C160.96 -0.65, 290.21 -0.71, 503.89 0 M503.89 0 C524.85 -1.86, 534.53 9.91, 535.89 32 M503.89 0 C524.84 -0.94, 533.61 12.89, 535.89 32 M535.89 32 C534.58 147.88, 534.68 267.76, 535.89 346.63 M535.89 32 C536.23 123.28, 536.43 213.49, 535.89 346.63 M535.89 346.63 C533.91 369.38, 526.33 377.75, 503.89 378.63 M535.89 346.63 C535.81 369.39, 523.15 378.14, 503.89 378.63 M503.89 378.63 C382.07 379.69, 260.97 379.44, 32 378.63 M503.89 378.63 C365.65 376.99, 227.06 377.38, 32 378.63 M32 378.63 C11.73 377.97, -1.33 368.55, 0 346.63 M32 378.63 C11.37 376.75, -1.5 367.49, 0 346.63 M0 346.63 C-1.21 232.87, -0.55 116.61, 0 32 M0 346.63 C-0.29 281.4, -0.14 215.07, 0 32 M0 32 C-1.25 12.26, 12.53 1.26, 32 0 M0 32 C-0.72 8.96, 11.64 0.85, 32 0" stroke="#1971c2" stroke-width="1" fill="none"></path></g><g stroke-opacity="0.5" fill-opacity="0.5" transform="translate(21.843036376415228 119.34189873867228) rotate(0 95.9979476928711 17.5)"><text x="0" y="0" font-family="Virgil, Segoe UI Emoji" font-size="28px" fill="#1971c2" text-anchor="start" style="white-space: pre;" direction="ltr" dominant-baseline="text-before-edge">Application UI</text></g><g stroke-linecap="round" transform="translate(24.79120786339024 189.94424999635794) rotate(0 180.72959899902347 162.52001953124994)"><path d="M7.86 8.16 C7.86 8.16, 7.86 8.16, 7.86 8.16 M7.86 8.16 C7.86 8.16, 7.86 8.16, 7.86 8.16 M3.66 19.09 C7.06 13.99, 13.52 9.45, 18.1 2.48 M3.66 19.09 C6.41 15.92, 9.97 12.59, 18.1 2.48 M2.75 26.24 C9.95 20.1, 12.77 13.9, 24.4 1.33 M2.75 26.24 C11.62 17.44, 19.81 6.45, 24.4 1.33 M2.48 32.64 C9.64 23.65, 12.52 17.65, 30.7 0.18 M2.48 32.64 C11.82 22.55, 19.87 14.46, 30.7 0.18 M2.88 38.28 C8.13 31.61, 15.5 22.71, 34.37 2.05 M2.88 38.28 C12.48 28.63, 20.65 17.3, 34.37 2.05 M2.62 44.68 C12.11 31.59, 26.65 16.9, 39.36 2.41 M2.62 44.68 C14.37 30.69, 26.95 17.39, 39.36 2.41 M2.36 51.07 C12.8 39.81, 20.2 29.3, 45 2.02 M2.36 51.07 C13.96 37.87, 25.02 25.21, 45 2.02 M2.75 56.72 C18.77 39, 35.13 18.93, 49.99 2.38 M2.75 56.72 C16.98 39.07, 31.54 22.19, 49.99 2.38 M2.49 63.11 C15.46 44.9, 31.15 29.95, 55.63 1.98 M2.49 63.11 C17.38 45.36, 31.68 28.58, 55.63 1.98 M2.88 68.76 C19.98 49.48, 38.21 26.41, 60.62 2.34 M2.88 68.76 C18.98 50.73, 35.63 32.96, 60.62 2.34 M2.62 75.16 C23.19 51.61, 44.64 24.79, 66.26 1.95 M2.62 75.16 C25.61 49.18, 46.63 23.61, 66.26 1.95 M2.36 81.55 C24.11 57.12, 43.23 35.03, 71.25 2.31 M2.36 81.55 C29.2 52.31, 55.23 21.36, 71.25 2.31 M2.76 87.2 C31.13 54.93, 64.28 21.56, 76.89 1.91 M2.76 87.2 C23.96 63.81, 44.44 39.19, 76.89 1.91 M2.49 93.59 C34.83 58.57, 64.97 25.55, 81.88 2.27 M2.49 93.59 C30.86 59.78, 60.63 28.17, 81.88 2.27 M2.23 99.99 C23.42 75.59, 43.31 55.23, 87.52 1.88 M2.23 99.99 C28.56 69.49, 56.31 37.46, 87.52 1.88 M2.63 105.64 C33.13 69.48, 65.37 32.25, 92.51 2.24 M2.63 105.64 C33.43 71.68, 62.28 37.92, 92.51 2.24 M2.37 112.03 C20.62 88.5, 42.4 69.34, 98.15 1.85 M2.37 112.03 C30.96 79.67, 58.82 46.41, 98.15 1.85 M2.76 117.68 C26.74 88.98, 51.72 63.39, 103.14 2.21 M2.76 117.68 C39.02 75.71, 75.2 33.57, 103.14 2.21 M2.5 124.07 C36.49 87.69, 69.55 47.55, 108.78 1.81 M2.5 124.07 C37.41 84.22, 71.9 44.44, 108.78 1.81 M2.24 130.47 C32.94 92.12, 64.68 55.53, 113.77 2.17 M2.24 130.47 C37.7 90.54, 72.44 50.94, 113.77 2.17 M2.63 136.11 C42.9 89.48, 85.48 41.49, 119.41 1.78 M2.63 136.11 C35.1 100.15, 66.27 62.69, 119.41 1.78 M2.37 142.51 C36.27 108.21, 65.07 70.17, 124.4 2.14 M2.37 142.51 C27.66 112.31, 54.41 81.28, 124.4 2.14 M2.11 148.91 C40.26 99.44, 81.22 54.79, 130.04 1.74 M2.11 148.91 C36.77 106.9, 71.92 66.58, 130.04 1.74 M2.5 154.55 C45.69 107.57, 85.28 56.64, 135.03 2.1 M2.5 154.55 C33.43 120.6, 62.96 87.28, 135.03 2.1 M2.24 160.95 C59.58 94.83, 115.06 34.48, 140.67 1.71 M2.24 160.95 C37.65 121.62, 73.61 79.08, 140.67 1.71 M2.64 166.59 C51.85 113.9, 97.66 58.8, 145.66 2.07 M2.64 166.59 C51.96 109.37, 99.89 53.72, 145.66 2.07 M2.38 172.99 C34.36 136.5, 69.3 98.18, 150.65 2.43 M2.38 172.99 C30.94 137.79, 61.69 103.92, 150.65 2.43 M2.11 179.39 C56.98 114.71, 115.71 48.67, 156.29 2.03 M2.11 179.39 C43.4 133.2, 84.92 86.84, 156.29 2.03 M2.51 185.03 C63.79 116.5, 121.25 50.96, 161.28 2.39 M2.51 185.03 C42.61 139.13, 83.01 91.42, 161.28 2.39 M2.25 191.43 C37.39 155.38, 69.72 114, 166.92 2 M2.25 191.43 C56.44 129.6, 109.06 69.27, 166.92 2 M2.64 197.07 C53.43 143.07, 100.67 86.9, 171.91 2.36 M2.64 197.07 C45.59 150.04, 87.11 101.56, 171.91 2.36 M2.38 203.47 C41.02 160.88, 78.02 117.42, 177.55 1.96 M2.38 203.47 C66.3 129.57, 130.75 56.88, 177.55 1.96 M2.12 209.87 C68.93 135, 137.91 57.44, 182.54 2.32 M2.12 209.87 C67.91 133.78, 135.11 57.35, 182.54 2.32 M2.51 215.51 C55.47 152.48, 108.21 90.18, 188.18 1.93 M2.51 215.51 C50.5 159.96, 96.81 105.87, 188.18 1.93 M2.25 221.91 C54.04 161.7, 102.53 103.53, 193.17 2.29 M2.25 221.91 C58.68 157.1, 114.74 92.58, 193.17 2.29 M1.99 228.31 C63.34 157.39, 124.81 87.3, 198.81 1.9 M1.99 228.31 C76.68 141.35, 152.39 54.54, 198.81 1.9 M2.39 233.95 C75.38 145.48, 151.69 58.36, 203.8 2.26 M2.39 233.95 C52.75 178.24, 102.71 120.32, 203.8 2.26 M2.12 240.35 C61.66 170.72, 119.4 104.4, 209.44 1.86 M2.12 240.35 C77.84 155.56, 150.52 70.95, 209.44 1.86 M2.52 245.99 C79.82 156.44, 156.62 69.02, 214.43 2.22 M2.52 245.99 C74.13 164.72, 144.63 82.67, 214.43 2.22 M2.26 252.39 C86.01 153.45, 174.87 55.08, 220.07 1.83 M2.26 252.39 C66.71 178.07, 132.01 103.09, 220.07 1.83 M2 258.79 C55.27 197.34, 108.47 135.89, 225.06 2.19 M2 258.79 C54.7 196.78, 108.91 134.56, 225.06 2.19 M2.39 264.43 C83.28 169.68, 165.93 77.37, 230.7 1.79 M2.39 264.43 C85.67 169.1, 170.24 72.1, 230.7 1.79 M2.13 270.83 C64.2 198.62, 128.58 124.95, 235.69 2.15 M2.13 270.83 C75.05 188.66, 146.77 105.45, 235.69 2.15 M1.87 277.23 C66.78 199.82, 133.85 123.93, 241.33 1.76 M1.87 277.23 C57.04 214.73, 112.21 151.79, 241.33 1.76 M2.26 282.87 C73.73 201.57, 143.14 121.93, 246.32 2.12 M2.26 282.87 C64.47 213.19, 125.53 143.43, 246.32 2.12 M2 289.27 C91.81 184.63, 183.26 81.48, 251.96 1.72 M2 289.27 C94.36 183.06, 185.56 78.61, 251.96 1.72 M2.4 294.91 C91.9 190.49, 183.35 87.95, 256.95 2.08 M2.4 294.91 C67.09 221.09, 131.4 146.57, 256.95 2.08 M2.79 300.55 C61.54 232.27, 123.01 162.16, 262.59 1.69 M2.79 300.55 C105.31 182.74, 207.89 65.05, 262.59 1.69 M2.53 306.95 C86.52 209.93, 172.68 113.92, 267.58 2.05 M2.53 306.95 C77.09 222.62, 150.4 137, 267.58 2.05 M4.24 311.08 C60.09 244.96, 119.35 179.11, 272.56 2.41 M4.24 311.08 C97.64 206.69, 188.6 101.55, 272.56 2.41 M6.6 314.46 C76.41 232.47, 147.53 152.62, 278.21 2.01 M6.6 314.46 C101.64 205.15, 197.78 94.91, 278.21 2.01 M8.96 317.84 C71.72 243.32, 135.52 170.29, 283.19 2.37 M8.96 317.84 C108.53 205.39, 207.05 92.52, 283.19 2.37 M12.64 319.71 C72.95 251.65, 133.35 184.29, 288.84 1.98 M12.64 319.71 C90.07 234.72, 165.24 147.59, 288.84 1.98 M15.65 322.34 C103.5 222.64, 188.66 122.21, 293.82 2.34 M15.65 322.34 C74.49 254.7, 134.1 186.44, 293.82 2.34 M19.33 324.21 C98.53 231.3, 179.44 137.81, 299.47 1.94 M19.33 324.21 C104.78 227.34, 190.54 128.79, 299.47 1.94 M24.32 324.57 C105.79 229.39, 189.78 134.19, 304.45 2.3 M24.32 324.57 C79.69 260.64, 135.75 196.32, 304.45 2.3 M28.65 325.68 C122.85 220.25, 214.59 115.83, 310.1 1.91 M28.65 325.68 C112.53 230.36, 194.25 135.45, 310.1 1.91 M33.63 326.04 C123.99 219.6, 214.74 113.68, 315.08 2.27 M33.63 326.04 C97.64 252.53, 162.38 178, 315.08 2.27 M38.62 326.4 C104.04 251.02, 170.77 173.08, 320.73 1.88 M38.62 326.4 C133.14 216.31, 228.5 107.11, 320.73 1.88 M44.26 326.01 C139.2 217.09, 236.43 105.85, 325.71 2.24 M44.26 326.01 C135.34 220.16, 228.49 113.26, 325.71 2.24 M49.25 326.37 C127.05 235.06, 206 143.47, 331.36 1.84 M49.25 326.37 C140.65 221.32, 232.65 116.37, 331.36 1.84 M54.89 325.97 C165.16 197.48, 277.38 69.5, 336.34 2.2 M54.89 325.97 C154.34 210.41, 254.24 94.36, 336.34 2.2 M59.88 326.33 C164.97 206.05, 268.36 85.62, 340.67 3.32 M59.88 326.33 C172.82 197.22, 284.93 68.15, 340.67 3.32 M65.52 325.94 C161.44 215.21, 259.98 102.84, 345.66 3.68 M65.52 325.94 C142.42 235.39, 220.55 145.47, 345.66 3.68 M70.51 326.3 C176.7 205.36, 283.03 82.54, 349.34 5.55 M70.51 326.3 C150.95 236.22, 230.21 144.72, 349.34 5.55 M76.15 325.9 C173.01 214.74, 271.03 102.22, 352.36 8.17 M76.15 325.9 C154.81 234.06, 235.93 140.87, 352.36 8.17 M81.14 326.26 C144.28 252.42, 207.41 179.75, 356.03 10.04 M81.14 326.26 C182.97 209.66, 284.2 93.16, 356.03 10.04 M86.13 326.62 C187.34 210.5, 291.81 92.16, 358.39 13.42 M86.13 326.62 C168.75 232.38, 251.42 137.19, 358.39 13.42 M91.77 326.23 C144.18 263.81, 199.53 201.01, 359.44 18.31 M91.77 326.23 C146.54 262.14, 203.65 197.04, 359.44 18.31 M96.76 326.59 C172.53 239.73, 247.75 152, 360.49 23.2 M96.76 326.59 C161.85 249.94, 228.75 173.63, 360.49 23.2 M102.4 326.19 C161.6 256.34, 220.26 188.5, 360.89 28.84 M102.4 326.19 C167.16 254.6, 230.47 181.89, 360.89 28.84 M107.39 326.55 C198.31 220.21, 289.42 114.47, 362.6 32.97 M107.39 326.55 C205.59 212.32, 304.1 98.48, 362.6 32.97 M113.03 326.16 C212.54 212.54, 309.49 97.95, 362.33 39.37 M113.03 326.16 C179.98 250.27, 246.68 174.23, 362.33 39.37 M118.02 326.52 C208.54 222.54, 300.82 117.34, 362.73 45.01 M118.02 326.52 C209.66 217.43, 304.03 110.11, 362.73 45.01 M123.66 326.12 C186.26 255.02, 245.24 185.6, 362.47 51.41 M123.66 326.12 C206.68 228.41, 291.15 130.99, 362.47 51.41 M128.65 326.49 C197.38 244.1, 268.49 161.42, 362.86 57.05 M128.65 326.49 C184.96 263.5, 240.32 200.41, 362.86 57.05 M134.29 326.09 C203 248.54, 268.92 169.59, 362.6 63.45 M134.29 326.09 C212.78 236.37, 290.91 147.17, 362.6 63.45 M139.28 326.45 C192.35 264.73, 249.91 201.32, 362.34 69.85 M139.28 326.45 C218.84 236.94, 298.61 145.02, 362.34 69.85 M144.92 326.06 C203.22 257.76, 262.93 189.95, 362.73 75.49 M144.92 326.06 C219.84 240.9, 294.48 152.97, 362.73 75.49 M149.91 326.42 C210.89 254.98, 274.39 182.84, 362.47 81.89 M149.91 326.42 C209.74 256.74, 269.21 188.28, 362.47 81.89 M155.55 326.02 C216.93 255.24, 279.81 182.86, 362.87 87.53 M155.55 326.02 C206.35 266.94, 258.15 208.51, 362.87 87.53 M160.54 326.38 C209.19 272.18, 258.19 215.61, 362.61 93.93 M160.54 326.38 C235.54 241.96, 308.52 157.47, 362.61 93.93 M166.18 325.99 C229.39 254.01, 293.09 180.36, 362.34 100.33 M166.18 325.99 C244.91 236.74, 322.96 146.8, 362.34 100.33 M171.17 326.35 C228.56 260.4, 282.99 197.66, 362.74 105.97 M171.17 326.35 C226.6 264.48, 280.9 201.71, 362.74 105.97 M176.81 325.95 C226.93 265.48, 279.09 206.79, 362.48 112.37 M176.81 325.95 C235.87 258.12, 296.59 188.15, 362.48 112.37 M181.8 326.31 C244.15 256.22, 307.55 182.65, 362.87 118.01 M181.8 326.31 C241.5 256.97, 300.87 188.67, 362.87 118.01 M187.44 325.92 C244.37 262.13, 300.78 196.14, 362.61 124.41 M187.44 325.92 C224.91 283.6, 262.1 239.79, 362.61 124.41 M192.43 326.28 C248.07 262.29, 302.23 201.01, 362.35 130.81 M192.43 326.28 C246.78 264.03, 301.23 201.81, 362.35 130.81 M197.42 326.64 C259.21 251.04, 324.97 178.38, 362.74 136.45 M197.42 326.64 C236.78 281.41, 275.36 237.49, 362.74 136.45 M203.06 326.24 C239.89 284.58, 277.56 241.18, 362.48 142.85 M203.06 326.24 C250.44 271.91, 297.29 218.52, 362.48 142.85 M208.05 326.6 C248.61 282.48, 287.66 234.67, 362.88 148.49 M208.05 326.6 C241.91 289.41, 273.91 249.7, 362.88 148.49 M213.69 326.21 C256.59 275.33, 303.64 224.24, 362.62 154.89 M213.69 326.21 C243.64 292.52, 273.81 257.7, 362.62 154.89 M218.68 326.57 C254.99 281.79, 292.03 238.4, 362.35 161.29 M218.68 326.57 C271.1 265.76, 324.89 205.03, 362.35 161.29 M224.32 326.17 C261.01 284.81, 294.2 246.49, 362.75 166.93 M224.32 326.17 C254.49 288.36, 287.22 252.7, 362.75 166.93 M229.31 326.53 C282.04 264.97, 335.25 207.19, 362.49 173.33 M229.31 326.53 C276.44 270.06, 322.94 217.36, 362.49 173.33 M234.95 326.14 C261.31 296.01, 288.08 264.56, 362.88 178.97 M234.95 326.14 C268.28 287.11, 301.25 247.78, 362.88 178.97 M239.94 326.5 C266.12 300.42, 287.45 270.39, 362.62 185.37 M239.94 326.5 C267.43 294.31, 296.65 261.07, 362.62 185.37 M245.58 326.11 C270.66 299.07, 297.9 269.78, 362.36 191.77 M245.58 326.11 C272.16 295.32, 299.5 265.43, 362.36 191.77 M250.57 326.47 C279.02 292.85, 310.14 254.78, 362.75 197.41 M250.57 326.47 C285.18 287.32, 318.96 246.73, 362.75 197.41 M256.21 326.07 C289.72 288.27, 321.03 252.03, 362.49 203.81 M256.21 326.07 C293.08 283.87, 330.64 240.52, 362.49 203.81 M261.2 326.43 C298.51 285.06, 339.06 239.41, 362.89 209.45 M261.2 326.43 C288.55 295.16, 317.23 263.4, 362.89 209.45 M266.84 326.04 C289.39 299.54, 309.95 274.53, 362.62 215.85 M266.84 326.04 C295.8 292.62, 325.4 258.27, 362.62 215.85 M271.83 326.4 C299.4 293.01, 328.98 259.78, 362.36 222.25 M271.83 326.4 C296.95 298.43, 321.86 267.69, 362.36 222.25 M277.47 326 C304.33 295.99, 334.37 260.79, 362.76 227.89 M277.47 326 C298.42 299.61, 321.33 273.82, 362.76 227.89 M282.46 326.36 C300.87 304.36, 319.38 281.15, 362.5 234.29 M282.46 326.36 C303.02 303.43, 322.5 281.53, 362.5 234.29 M288.1 325.97 C308.74 305.98, 327.89 281.29, 362.89 239.93 M288.1 325.97 C305.05 306.28, 321.49 287.26, 362.89 239.93 M293.09 326.33 C322.82 295.61, 349.59 263.11, 362.63 246.33 M293.09 326.33 C320.83 295.94, 348.11 263.27, 362.63 246.33 M298.73 325.93 C316.23 305.07, 331.77 285.39, 362.37 252.73 M298.73 325.93 C318.28 304.48, 337.58 281.88, 362.37 252.73 M303.72 326.29 C321.69 304.84, 343.44 281.89, 362.76 258.37 M303.72 326.29 C319.86 308.47, 334.33 291.51, 362.76 258.37 M308.7 326.65 C328.48 304.06, 344.32 284.67, 362.5 264.77 M308.7 326.65 C321.38 311.8, 333.81 296.53, 362.5 264.77 M314.35 326.26 C328.75 309.79, 340.34 293.21, 362.9 270.41 M314.35 326.26 C328.34 310.7, 342.52 293.96, 362.9 270.41 M319.33 326.62 C330.22 314.29, 337.95 305.39, 362.63 276.81 M319.33 326.62 C331.32 311.89, 344.92 298.43, 362.63 276.81 M324.98 326.22 C331.97 317.61, 340.33 305.07, 362.37 283.21 M324.98 326.22 C337.12 312.34, 346.61 300.78, 362.37 283.21 M330.62 325.83 C336.91 319.65, 345.68 308.4, 362.77 288.85 M330.62 325.83 C341.29 312.21, 353.56 300.38, 362.77 288.85 M336.26 325.44 C344.2 318.33, 350.04 310.29, 363.16 294.49 M336.26 325.44 C345.75 314.45, 355.88 302.45, 363.16 294.49 M343.88 322.78 C348.89 316.34, 355.62 307.24, 362.24 301.64 M343.88 322.78 C351.71 315.33, 357.03 305.82, 362.24 301.64" stroke="#a5d8ff" stroke-width="0.5" fill="none"></path><path d="M32 0 M32 0 C101.18 -0.59, 173.35 -0.33, 329.46 0 M329.46 0 C351.22 1.7, 362.32 10.9, 361.46 32 M361.46 32 C359.9 94.46, 358.92 157.65, 361.46 293.04 M361.46 293.04 C361.77 313.41, 351.41 324.17, 329.46 325.04 M329.46 325.04 C255.02 322.32, 181.05 324.06, 32 325.04 M32 325.04 C11.03 326.77, -1.24 314.56, 0 293.04 M0 293.04 C-0.69 219.24, -1.46 149.9, 0 32 M0 32 C0.32 10.82, 10.68 0.31, 32 0" stroke="#1971c2" stroke-width="1.5" fill="none" stroke-dasharray="8 9"></path></g><g transform="translate(142.7868285909293 334.96426952760794) rotate(0 62.733978271484375 17.5)"><text x="62.733978271484375" y="0" font-family="Virgil, Segoe UI Emoji" font-size="28px" fill="#1971c2" text-anchor="middle" style="white-space: pre;" direction="ltr" dominant-baseline="text-before-edge">CORE UI</text></g><g stroke-linecap="round" transform="translate(408.9215323807395 190.0367732754903) rotate(0 59.5 143)"><path d="M4.2 11.6 C4.2 11.6, 4.2 11.6, 4.2 11.6 M4.2 11.6 C4.2 11.6, 4.2 11.6, 4.2 11.6 M0.66 21.77 C6.2 17.17, 7.1 11.46, 13.78 6.68 M0.66 21.77 C2.48 17.69, 5.44 14.88, 13.78 6.68 M3.02 25.15 C9.01 19.44, 15.92 10.67, 24.02 1 M3.02 25.15 C9.24 18.66, 15.69 11.43, 24.02 1 M2.76 31.55 C9.2 21.96, 19.12 13.29, 30.31 -0.15 M2.76 31.55 C8.55 25.22, 13.74 19.59, 30.31 -0.15 M3.15 37.19 C15.83 24.3, 26.17 14.56, 35.3 0.21 M3.15 37.19 C13.76 26.43, 22.52 14.62, 35.3 0.21 M2.89 43.59 C15.58 29.38, 26.57 13.8, 40.29 0.57 M2.89 43.59 C11.61 34.14, 20.65 23.61, 40.29 0.57 M3.29 49.23 C12.18 39.22, 21.88 25.77, 45.93 0.18 M3.29 49.23 C17.64 31.89, 32.13 16.18, 45.93 0.18 M3.03 55.63 C18.34 38.51, 36.77 18.49, 50.92 0.54 M3.03 55.63 C17.45 38.35, 33.54 20.33, 50.92 0.54 M2.76 62.03 C17.34 44.38, 31.94 26.11, 56.56 0.14 M2.76 62.03 C19.82 42.14, 38.28 22.62, 56.56 0.14 M3.16 67.67 C24.11 40.84, 47.65 15.89, 61.55 0.5 M3.16 67.67 C24.27 44.27, 44.29 19.08, 61.55 0.5 M2.9 74.07 C27.3 47, 49.23 18.9, 67.19 0.11 M2.9 74.07 C28.85 43.83, 54.18 14.48, 67.19 0.11 M3.29 79.71 C25.23 53.81, 50.73 26.37, 72.18 0.47 M3.29 79.71 C22.06 57.65, 41.22 35.53, 72.18 0.47 M3.03 86.11 C31.99 53.93, 60.74 19.9, 77.17 0.83 M3.03 86.11 C24.97 63.18, 45.86 38.54, 77.17 0.83 M2.77 92.51 C30.48 60.93, 59.28 28.23, 82.81 0.43 M2.77 92.51 C24.68 66.61, 49.59 38.23, 82.81 0.43 M3.16 98.15 C21.48 74.69, 40.53 52.68, 87.8 0.79 M3.16 98.15 C35.35 62.48, 66.48 26.58, 87.8 0.79 M2.9 104.55 C34.97 67.62, 72.4 27.97, 93.44 0.4 M2.9 104.55 C31.01 72.93, 58.5 41.14, 93.44 0.4 M2.64 110.95 C19.98 88.32, 41.58 65.07, 97.77 1.51 M2.64 110.95 C21.47 88.79, 42.59 65.61, 97.77 1.51 M3.04 116.59 C31.27 85.28, 58.37 51.97, 101.44 3.38 M3.04 116.59 C26.58 87.92, 52.45 59.33, 101.44 3.38 M2.77 122.99 C25.82 93.85, 48.84 66.77, 105.78 4.5 M2.77 122.99 C29.09 95.01, 54.63 65.85, 105.78 4.5 M3.17 128.63 C40.66 83.31, 77.78 39.01, 109.45 6.37 M3.17 128.63 C43.53 80.92, 84.36 33.05, 109.45 6.37 M2.91 135.03 C48.07 85.73, 88.28 34.37, 113.13 8.24 M2.91 135.03 C33.07 101.61, 62.58 68.82, 113.13 8.24 M2.65 141.43 C43.39 93.69, 87.56 44.44, 114.83 12.37 M2.65 141.43 C43.59 90.68, 87.56 42.14, 114.83 12.37 M3.04 147.07 C34.34 111.81, 60.7 78.98, 117.2 15.75 M3.04 147.07 C42.66 100.13, 83.24 53.05, 117.2 15.75 M2.78 153.47 C35.48 113.05, 70.76 71.07, 119.56 19.13 M2.78 153.47 C31.13 122, 59.08 90.78, 119.56 19.13 M2.52 159.87 C39.15 120.44, 71.87 78.04, 120.61 24.02 M2.52 159.87 C42.96 113.02, 83.44 67.48, 120.61 24.02 M2.91 165.51 C29.55 134.04, 61.99 100.93, 120.35 30.42 M2.91 165.51 C44.72 119.15, 87.04 70.25, 120.35 30.42 M2.65 171.91 C34.02 134.3, 66.49 98.22, 120.09 36.81 M2.65 171.91 C43.28 126.78, 82.84 78.23, 120.09 36.81 M3.05 177.55 C36.02 139.04, 71.62 99.41, 119.82 43.21 M3.05 177.55 C35.92 138.84, 68.34 101.48, 119.82 43.21 M2.78 183.95 C37.11 144.15, 74.15 101.5, 120.22 48.85 M2.78 183.95 C31.44 150.4, 61.14 117.86, 120.22 48.85 M2.52 190.34 C31.05 159.83, 59.66 126.63, 119.96 55.25 M2.52 190.34 C46.81 141.05, 88.62 92.21, 119.96 55.25 M2.92 195.99 C40.86 153.46, 79.05 109.01, 120.35 60.89 M2.92 195.99 C49.98 142.81, 96.48 89.11, 120.35 60.89 M2.66 202.39 C38.42 160.87, 70.96 123.27, 120.09 67.29 M2.66 202.39 C36.86 164.78, 70.31 125.9, 120.09 67.29 M3.05 208.03 C33.7 169.11, 67.07 132.44, 119.83 73.69 M3.05 208.03 C40 165.92, 78.61 121.34, 119.83 73.69 M2.79 214.43 C43.43 169.92, 84.95 121.33, 120.22 79.33 M2.79 214.43 C41.27 169.25, 79.64 125.11, 120.22 79.33 M2.53 220.82 C41.03 178.73, 78.73 133.97, 119.96 85.73 M2.53 220.82 C27.91 192.71, 52.67 162.92, 119.96 85.73 M2.92 226.47 C41.35 181.62, 78.4 140.29, 120.36 91.37 M2.92 226.47 C40.58 183.28, 78.19 140.53, 120.36 91.37 M2.66 232.87 C45.56 178.44, 92.89 127.66, 120.1 97.77 M2.66 232.87 C30.61 200.62, 58.03 169.65, 120.1 97.77 M2.4 239.26 C29.71 208.92, 57.61 176.74, 119.83 104.17 M2.4 239.26 C37.38 199.22, 71.93 160.08, 119.83 104.17 M2.79 244.91 C33.48 211.97, 62.63 174.98, 120.23 109.81 M2.79 244.91 C28.74 217.11, 52.42 186.43, 120.23 109.81 M2.53 251.3 C35.68 211.56, 73.59 171.5, 119.97 116.21 M2.53 251.3 C25.93 225.04, 49.68 197.59, 119.97 116.21 M2.27 257.7 C31.81 220.46, 61.93 184.9, 120.36 121.85 M2.27 257.7 C45.24 207.8, 89.9 157.75, 120.36 121.85 M2.67 263.34 C34.32 227.84, 62.06 195.78, 120.1 128.25 M2.67 263.34 C27.95 231, 56.07 200.92, 120.1 128.25 M2.4 269.74 C48.93 215.17, 95.94 164.92, 119.84 134.65 M2.4 269.74 C44.04 219.62, 84.85 173.56, 119.84 134.65 M4.77 273.12 C28.57 245.89, 52.72 217.45, 120.23 140.29 M4.77 273.12 C34.92 237.87, 64.61 202.3, 120.23 140.29 M6.47 277.26 C30.83 253.26, 50.31 225.35, 119.97 146.69 M6.47 277.26 C31.84 247.44, 58.93 216.66, 119.97 146.69 M9.49 279.88 C33.24 254.25, 59.2 226.43, 120.37 152.33 M9.49 279.88 C34.69 250.64, 60.69 222.29, 120.37 152.33 M12.51 282.5 C39.74 250.31, 69.6 213.7, 120.11 158.73 M12.51 282.5 C45.74 244.98, 78.1 206.02, 120.11 158.73 M16.84 283.62 C49.32 246.98, 79.62 211.9, 119.84 165.13 M16.84 283.62 C52.58 242.73, 88.97 200.72, 119.84 165.13 M20.52 285.49 C57.09 244.95, 96.9 200.15, 120.24 170.77 M20.52 285.49 C47.32 254.82, 75.47 223.69, 120.24 170.77 M24.19 287.36 C46.74 260.86, 67.31 235.85, 119.98 177.17 M24.19 287.36 C53.15 253.94, 82.75 219.6, 119.98 177.17 M29.84 286.96 C57.41 253.58, 86.98 220.34, 120.37 182.81 M29.84 286.96 C54.96 259, 79.87 228.26, 120.37 182.81 M34.82 287.32 C61.68 257.31, 91.73 222.11, 120.11 189.21 M34.82 287.32 C55.77 260.93, 78.68 235.14, 120.11 189.21 M40.47 286.93 C58.72 265.1, 77.08 242.08, 119.85 195.61 M40.47 286.93 C60.86 264.18, 80.18 242.47, 119.85 195.61 M45.45 287.29 C66.09 267.3, 85.25 242.61, 120.24 201.25 M45.45 287.29 C62.4 267.6, 78.84 248.58, 120.24 201.25 M51.1 286.89 C80.57 256.47, 107.08 224.26, 119.98 207.65 M51.1 286.89 C78.58 256.8, 105.6 224.43, 119.98 207.65 M56.08 287.25 C73.77 266.18, 89.48 246.3, 120.38 213.29 M56.08 287.25 C75.83 265.58, 95.32 242.76, 120.38 213.29 M61.07 287.61 C79.04 266.16, 100.8 243.21, 120.11 219.69 M61.07 287.61 C77.21 269.79, 91.68 252.83, 120.11 219.69 M66.71 287.22 C86.27 264.88, 101.88 245.76, 119.85 226.09 M66.71 287.22 C79.23 272.55, 91.51 257.45, 119.85 226.09 M71.7 287.58 C86.1 271.12, 97.7 254.53, 120.25 231.73 M71.7 287.58 C85.7 272.02, 99.87 255.28, 120.25 231.73 M77.34 287.19 C88.08 275.03, 95.65 266.3, 119.99 238.13 M77.34 287.19 C89.14 272.67, 102.56 259.43, 119.99 238.13 M82.33 287.55 C89.47 278.76, 97.98 266.05, 120.38 243.77 M82.33 287.55 C94.67 273.43, 104.35 261.65, 120.38 243.77 M87.97 287.15 C94.26 280.97, 103.03 269.72, 120.12 250.17 M87.97 287.15 C98.64 273.53, 110.92 261.7, 120.12 250.17 M92.3 288.27 C100.39 281, 106.37 272.79, 119.86 256.57 M92.3 288.27 C102.02 277, 112.39 264.74, 119.86 256.57 M97.95 287.87 C103.93 280.34, 111.61 270.14, 118.94 263.72 M97.95 287.87 C106.77 279.24, 113.11 268.56, 118.94 263.72 M104.9 285.97 C105.9 283.38, 109.83 280.96, 114.74 274.65 M104.9 285.97 C108.05 281.87, 110.77 278.01, 114.74 274.65" stroke="#b2f2bb" stroke-width="0.5" fill="none"></path><path d="M29.75 0 M29.75 0 C43.51 0.89, 60.24 1.19, 89.25 0 M89.25 0 C108.21 -1, 119.25 8.66, 119 29.75 M119 29.75 C117.69 97.59, 118.72 163.76, 119 256.25 M119 256.25 C119.19 275.62, 109.73 285.99, 89.25 286 M89.25 286 C73.28 286.02, 53.78 285.73, 29.75 286 M29.75 286 C10.22 287.65, -0.95 276, 0 256.25 M0 256.25 C-0.23 190.07, 2.85 125.79, 0 29.75 M0 29.75 C-1.02 11.21, 9.74 -1.48, 29.75 0" stroke="#1971c2" stroke-width="1.5" fill="none" stroke-dasharray="8 9"></path></g><g transform="translate(416.3915793778098 308.0367732754903) rotate(0 52.02995300292969 25)"><text x="52.02995300292969" y="0" font-family="Virgil, Segoe UI Emoji" font-size="20px" fill="#1971c2" text-anchor="middle" style="white-space: pre;" direction="ltr" dominant-baseline="text-before-edge">&lt;Extension</text><text x="52.02995300292969" y="25" font-family="Virgil, Segoe UI Emoji" font-size="20px" fill="#1971c2" text-anchor="middle" style="white-space: pre;" direction="ltr" dominant-baseline="text-before-edge">Point&gt;</text></g><g stroke-linecap="round" transform="translate(993.1091575294322 441.3074251536717) rotate(0 131.7125227022358 26.941197825457323)"><path d="M3.59 3.12 C3.59 3.12, 3.59 3.12, 3.59 3.12 M3.59 3.12 C3.59 3.12, 3.59 3.12, 3.59 3.12 M3.32 9.51 C5.2 7.13, 6.31 5.71, 9.23 2.72 M3.32 9.51 C5.47 7.46, 7.46 5, 9.23 2.72 M3.06 15.91 C4.16 11.1, 9.48 10.29, 15.53 1.57 M3.06 15.91 C7.47 11.48, 10.89 6.56, 15.53 1.57 M2.8 22.31 C8.24 14.25, 16.37 8.44, 20.51 1.93 M2.8 22.31 C7.46 17.06, 11.35 12.68, 20.51 1.93 M3.2 27.95 C10.72 17.57, 16.59 10.2, 26.16 1.54 M3.2 27.95 C11.04 18.52, 21.01 8.04, 26.16 1.54 M3.59 33.6 C12.25 22.7, 21.38 12.75, 31.14 1.9 M3.59 33.6 C9.77 26.77, 14.24 20.02, 31.14 1.9 M3.33 39.99 C16.16 27.05, 28.45 10.2, 36.79 1.5 M3.33 39.99 C11.73 29.19, 21.94 18.2, 36.79 1.5 M2.41 47.15 C10.85 36.62, 22.94 21.39, 41.78 1.86 M2.41 47.15 C16.17 30.97, 30.57 16.01, 41.78 1.86 M4.12 51.28 C19.26 38.32, 31.31 21.69, 47.42 1.47 M4.12 51.28 C14.98 39.67, 23.2 29.13, 47.42 1.47 M7.79 53.15 C18.09 39.54, 31.54 28.91, 52.41 1.83 M7.79 53.15 C23.3 35.09, 39.85 17.36, 52.41 1.83 M11.47 55.02 C24.2 36.81, 42.16 19.85, 58.05 1.44 M11.47 55.02 C28.98 34.16, 46.8 12.28, 58.05 1.44 M17.11 54.62 C33.25 35.58, 46.17 18.26, 63.04 1.8 M17.11 54.62 C34.99 35.19, 50.28 17.48, 63.04 1.8 M22.1 54.98 C36.88 40.21, 49.26 23.73, 68.68 1.4 M22.1 54.98 C35.28 38.96, 51.27 22.31, 68.68 1.4 M27.74 54.59 C44.61 35.48, 60.55 14.92, 73.67 1.76 M27.74 54.59 C36.43 42.91, 45.79 32.63, 73.67 1.76 M32.73 54.95 C47.69 34.26, 67.51 16.86, 78.65 2.12 M32.73 54.95 C51.99 34.55, 70.03 13.9, 78.65 2.12 M38.37 54.56 C48.32 40.59, 60.09 26.76, 84.3 1.73 M38.37 54.56 C52.53 36.85, 68.9 19.1, 84.3 1.73 M43.36 54.92 C58.32 36.26, 74.87 16.61, 89.28 2.09 M43.36 54.92 C60.38 33.79, 79.11 13.15, 89.28 2.09 M49 54.52 C59.87 41.3, 75.22 26.55, 94.93 1.69 M49 54.52 C62.13 41.1, 73.95 26.97, 94.93 1.69 M53.99 54.88 C68.39 38.19, 85.76 19.01, 99.91 2.05 M53.99 54.88 C68.69 37.81, 84.18 20.14, 99.91 2.05 M58.98 55.24 C70.69 42.08, 81.11 31.9, 105.56 1.66 M58.98 55.24 C76.45 33.76, 94.39 14.06, 105.56 1.66 M64.62 54.85 C76.22 41.9, 90.82 25.01, 110.54 2.02 M64.62 54.85 C79.36 36.63, 95.9 19.88, 110.54 2.02 M69.61 55.21 C88.38 35.9, 103.98 14.21, 116.19 1.62 M69.61 55.21 C84.34 38.23, 98.08 21.6, 116.19 1.62 M75.25 54.81 C92.77 35.25, 108.45 16.89, 121.17 1.98 M75.25 54.81 C87.76 41.87, 99.5 27.78, 121.17 1.98 M80.24 55.17 C97.09 33.88, 114.16 16.45, 126.82 1.59 M80.24 55.17 C94.27 37.24, 110.65 19.72, 126.82 1.59 M85.88 54.78 C101.09 34.58, 120.13 17.78, 131.8 1.95 M85.88 54.78 C97.47 40.63, 110.22 26.46, 131.8 1.95 M90.87 55.14 C105.11 36.92, 121.57 19.99, 137.45 1.55 M90.87 55.14 C109.74 34.89, 126.31 14.43, 137.45 1.55 M96.51 54.74 C113.04 34.44, 128.43 17.77, 142.43 1.91 M96.51 54.74 C113.13 35.84, 131.18 16.56, 142.43 1.91 M101.5 55.1 C119.74 38.01, 134.02 20.29, 148.08 1.52 M101.5 55.1 C111.87 42.7, 123.33 30.1, 148.08 1.52 M107.14 54.71 C118.8 44.21, 126.41 31.61, 153.06 1.88 M107.14 54.71 C123.13 34.99, 139.46 16.72, 153.06 1.88 M112.13 55.07 C128.01 35.65, 146.7 14.89, 158.71 1.48 M112.13 55.07 C130.13 34.53, 148.62 14.24, 158.71 1.48 M117.77 54.67 C130.38 40.69, 141.27 26.23, 163.69 1.84 M117.77 54.67 C130.29 39.01, 143.81 24.11, 163.69 1.84 M122.76 55.03 C135.69 39.79, 152.31 22.97, 168.68 2.2 M122.76 55.03 C136.33 39.68, 150.4 23.79, 168.68 2.2 M128.4 54.64 C139.7 43.05, 151.05 27.28, 174.32 1.81 M128.4 54.64 C144.52 37.19, 158.65 18.54, 174.32 1.81 M133.39 55 C143.4 43.3, 155.99 31.69, 179.31 2.17 M133.39 55 C150.07 37.49, 164.83 19.17, 179.31 2.17 M139.03 54.61 C148.58 43.5, 158.87 32.82, 184.95 1.78 M139.03 54.61 C154.39 36.14, 168.71 19.89, 184.95 1.78 M144.02 54.97 C153.08 44.43, 163.71 33.77, 189.94 2.14 M144.02 54.97 C158.8 38.72, 173.29 21.12, 189.94 2.14 M149.66 54.57 C162.29 39.66, 177.77 22.95, 195.58 1.74 M149.66 54.57 C164.94 38.81, 177.78 22.73, 195.58 1.74 M154.65 54.93 C168.84 35.58, 187.44 16.38, 200.57 2.1 M154.65 54.93 C168.57 37.82, 183.43 22.23, 200.57 2.1 M159.63 55.29 C172.83 41.55, 183.28 25.02, 206.21 1.71 M159.63 55.29 C173.56 37.93, 186.23 22.78, 206.21 1.71 M165.28 54.9 C174.38 44.44, 187.46 28.93, 211.2 2.07 M165.28 54.9 C175.19 43.44, 185.24 32.07, 211.2 2.07 M170.26 55.26 C181.37 46.6, 187.25 32.57, 216.84 1.67 M170.26 55.26 C185.39 37.24, 201 20.34, 216.84 1.67 M175.91 54.86 C192.18 37.22, 208.36 19.11, 221.83 2.03 M175.91 54.86 C186.9 43.31, 196.62 29.7, 221.83 2.03 M180.89 55.22 C200.57 33.69, 216.91 15, 227.47 1.64 M180.89 55.22 C192.63 43.08, 203.41 29.9, 227.47 1.64 M186.54 54.83 C200.87 35.64, 217.22 18.22, 232.46 2 M186.54 54.83 C203.86 35.36, 219.91 17.2, 232.46 2 M191.52 55.19 C202.57 40.12, 218.8 26.49, 238.1 1.6 M191.52 55.19 C204.9 40.93, 218.05 24.82, 238.1 1.6 M197.17 54.79 C213.64 37.97, 226.81 18.99, 243.09 1.96 M197.17 54.79 C211.89 36.45, 227.07 19.69, 243.09 1.96 M202.15 55.15 C215.7 40.28, 228.2 26.66, 248.73 1.57 M202.15 55.15 C216.14 38.46, 231.21 21.67, 248.73 1.57 M207.8 54.76 C216.32 43.06, 224.61 31, 254.38 1.17 M207.8 54.76 C218.47 42.34, 229.94 30.12, 254.38 1.17 M212.78 55.12 C230.56 37.66, 244.78 17.47, 258.05 3.04 M212.78 55.12 C229.2 36.41, 246.36 16.84, 258.05 3.04 M218.43 54.72 C233.16 38.12, 246.25 22.68, 261.73 4.91 M218.43 54.72 C231.95 38.62, 244.1 23.89, 261.73 4.91 M223.41 55.08 C236.84 41.18, 251.98 23, 264.09 8.29 M223.41 55.08 C235.77 39.18, 248.53 24.6, 264.09 8.29 M229.06 54.69 C235.08 44.63, 246.16 38.74, 263.83 14.69 M229.06 54.69 C242.22 40.81, 254.17 25.58, 263.83 14.69 M234.04 55.05 C241.89 44.15, 251.2 36.99, 264.22 20.33 M234.04 55.05 C240.89 47.92, 245.96 40.92, 264.22 20.33 M239.69 54.66 C248.09 45.09, 256.73 35.76, 263.96 26.73 M239.69 54.66 C248.3 44.84, 255.72 37.06, 263.96 26.73 M244.67 55.02 C252.73 50.06, 257.16 41.71, 264.36 32.37 M244.67 55.02 C251.67 47.76, 257.71 39.9, 264.36 32.37 M250.32 54.62 C256.74 47.44, 257.77 43.13, 264.09 38.77 M250.32 54.62 C256.04 49.37, 260.74 44.49, 264.09 38.77 M256.62 53.47 C258.2 51.09, 260.86 47.54, 264.49 44.41 M256.62 53.47 C259.21 49.9, 261.68 47.59, 264.49 44.41" stroke="#ffec99" stroke-width="0.5" fill="none"></path><path d="M13.47 0 M13.47 0 C99.45 -2.13, 189.99 -1.34, 249.95 0 M249.95 0 C257.85 1.75, 263.41 2.76, 263.43 13.47 M263.43 13.47 C263.39 21.92, 263.45 28.7, 263.43 40.41 M263.43 40.41 C265.28 47.43, 257.51 55.08, 249.95 53.88 M249.95 53.88 C198.87 50.78, 148.44 53.38, 13.47 53.88 M13.47 53.88 C5.42 55.25, -1.28 50.48, 0 40.41 M0 40.41 C-1.7 33.65, 0.45 24.29, 0 13.47 M0 13.47 C0.18 3.6, 4 1.87, 13.47 0" stroke="#2f9e44" stroke-width="1.5" fill="none" stroke-dasharray="8 9"></path></g><g transform="translate(1056.2517492013947 455.7486229791291) rotate(0 68.56993103027344 12.5)"><text x="68.56993103027344" y="0" font-family="Virgil, Segoe UI Emoji" font-size="20px" fill="#1971c2" text-anchor="middle" style="white-space: pre;" direction="ltr" dominant-baseline="text-before-edge">Design system</text></g><g mask="url(#mask--xmvfS9AqdMcKo3MvCKgn)" stroke-linecap="round"><g transform="translate(529.4479054292465 257.2818441284086) rotate(0 155.54106885208597 -0.32167922535381877)"><path d="M0.22 1.08 C51.84 0.85, 259.03 -1, 310.86 -1.72" stroke="#1e1e1e" stroke-width="1.5" fill="none" stroke-dasharray="8 9"></path></g><g transform="translate(529.4479054292465 257.2818441284086) rotate(0 155.54106885208597 -0.32167922535381877)"><path d="M284.57 10.09 C295.4 6.42, 304.04 2.2, 312.25 -2.71" stroke="#1e1e1e" stroke-width="1.5" fill="none"></path></g><g transform="translate(529.4479054292465 257.2818441284086) rotate(0 155.54106885208597 -0.32167922535381877)"><path d="M284.35 -10.43 C295.2 -5.97, 303.92 -2.06, 312.25 -2.71" stroke="#1e1e1e" stroke-width="1.5" fill="none"></path></g></g><mask id="mask--xmvfS9AqdMcKo3MvCKgn"><rect x="0" y="0" fill="#fff" width="939.5649015323029" height="359.87543002373513"></rect><rect x="634.0464578020637" y="243.48505118074524" fill="#000" width="100.91989135742188" height="25" opacity="1"></rect></mask><g stroke-opacity="0.5" fill-opacity="0.5" transform="translate(634.0464578020637 243.48505118074524) rotate(0 50.942516479268704 13.475113722309516)"><text x="50.45994567871094" y="0" font-family="Virgil, Segoe UI Emoji" font-size="20px" fill="#1e1e1e" text-anchor="middle" style="white-space: pre;" direction="ltr" dominant-baseline="text-before-edge">references</text></g><g stroke-linecap="round" transform="translate(855.661997441626 208.4849079704619) rotate(0 200 44.5)"><path d="M5.27 5.9 C5.27 5.9, 5.27 5.9, 5.27 5.9 M5.27 5.9 C5.27 5.9, 5.27 5.9, 5.27 5.9 M3.04 14.56 C5.57 10.34, 11.09 4.96, 13.53 2.49 M3.04 14.56 C7.6 9.75, 10.12 5.73, 13.53 2.49 M0.81 23.23 C9.11 14.56, 15.4 8.15, 19.83 1.34 M0.81 23.23 C5.66 17.63, 10.05 12.23, 19.83 1.34 M1.2 28.87 C11.21 16.58, 17.61 7.57, 24.82 1.7 M1.2 28.87 C10.01 18.05, 18.23 7.94, 24.82 1.7 M0.94 35.27 C7.58 27.16, 11.03 19.78, 29.81 2.06 M0.94 35.27 C9.65 26.18, 18.34 15.29, 29.81 2.06 M0.68 41.67 C10.72 28.17, 24.32 17.88, 35.45 1.67 M0.68 41.67 C15.51 25.84, 28.71 8.7, 35.45 1.67 M1.07 47.31 C15.29 29.64, 30.19 15.8, 40.44 2.03 M1.07 47.31 C16.92 30.32, 32.13 11.44, 40.44 2.03 M0.81 53.71 C17.72 33.56, 34.7 13.11, 45.42 2.39 M0.81 53.71 C12.5 39.18, 26.04 24.85, 45.42 2.39 M1.21 59.35 C11.27 47.06, 23.54 32.43, 51.07 1.99 M1.21 59.35 C14.21 44.9, 26.76 28.94, 51.07 1.99 M0.29 66.5 C18.32 45.97, 35.59 27.14, 56.05 2.35 M0.29 66.5 C14.41 50.59, 30.48 32.77, 56.05 2.35 M0.68 72.15 C23.89 44.95, 44.22 22.35, 61.7 1.96 M0.68 72.15 C18.08 52.94, 33.89 33.53, 61.7 1.96 M1.73 77.03 C24.53 52.59, 46.58 29.97, 66.68 2.32 M1.73 77.03 C19.27 57.04, 37.77 36.2, 66.68 2.32 M4.1 80.41 C21.05 63.1, 38.58 43.39, 72.33 1.92 M4.1 80.41 C27.86 51.77, 52.66 23.17, 72.33 1.92 M6.46 83.79 C26.49 61.34, 42.08 42.41, 77.31 2.28 M6.46 83.79 C24.53 62.34, 43.65 41.35, 77.31 2.28 M10.13 85.66 C30.73 63.94, 49.77 42.66, 82.96 1.89 M10.13 85.66 C29.31 62.58, 50.29 37.98, 82.96 1.89 M13.81 87.53 C36.61 61.03, 55.13 38.6, 87.94 2.25 M13.81 87.53 C31.37 66.45, 50.85 44.35, 87.94 2.25 M17.48 89.4 C42.23 60.08, 69.62 30.81, 93.59 1.85 M17.48 89.4 C47.83 55.87, 76.76 20.49, 93.59 1.85 M23.13 89.01 C53.37 56.05, 84.29 18.47, 98.57 2.21 M23.13 89.01 C45.68 62.03, 68 36.73, 98.57 2.21 M28.11 89.37 C52.96 64.71, 75.9 38.05, 104.22 1.82 M28.11 89.37 C47.6 67.91, 65.79 46.34, 104.22 1.82 M33.76 88.97 C58.07 60.11, 80.24 33.38, 109.2 2.18 M33.76 88.97 C59.32 61.41, 84.69 31.85, 109.2 2.18 M38.74 89.33 C62.76 59.29, 90.16 30.13, 114.85 1.78 M38.74 89.33 C68.87 54.91, 97.08 22.24, 114.85 1.78 M44.39 88.94 C73.76 58.1, 101.65 24.37, 119.83 2.14 M44.39 88.94 C67.7 61.26, 90.76 34.65, 119.83 2.14 M49.37 89.3 C73.92 61.16, 101.31 34.5, 125.48 1.75 M49.37 89.3 C78.81 54.44, 108.59 21.84, 125.48 1.75 M55.02 88.9 C74.66 67.73, 90 49.46, 130.46 2.11 M55.02 88.9 C75 65.5, 94.7 42.34, 130.46 2.11 M60 89.26 C82.29 63.96, 100.21 41.71, 135.45 2.47 M60 89.26 C90.4 54.33, 120.33 20.57, 135.45 2.47 M65.65 88.87 C78.75 70.49, 96.57 53.36, 141.09 2.08 M65.65 88.87 C84.34 67.23, 104.5 44.74, 141.09 2.08 M70.64 89.23 C94.19 58.87, 120.9 29.06, 146.08 2.44 M70.64 89.23 C99.35 55, 129.01 20.07, 146.08 2.44 M75.62 89.59 C95.99 64.12, 114.91 41.82, 151.72 2.04 M75.62 89.59 C93.82 69.85, 110.41 49.76, 151.72 2.04 M81.27 89.19 C108.52 56.67, 135.72 23.56, 156.71 2.4 M81.27 89.19 C104.47 62.23, 128.55 35.89, 156.71 2.4 M86.25 89.55 C106.93 64.47, 126.3 39.61, 162.36 2.01 M86.25 89.55 C110.32 59.8, 134.76 30.88, 162.36 2.01 M91.9 89.16 C117.05 58.7, 142.18 28.44, 167.34 2.37 M91.9 89.16 C117.37 59.16, 143.35 28.32, 167.34 2.37 M96.88 89.52 C126.69 54.49, 154.62 22.88, 172.99 1.97 M96.88 89.52 C113.52 71.48, 129.72 52.04, 172.99 1.97 M102.53 89.12 C128.69 59.39, 159.48 26.69, 177.97 2.33 M102.53 89.12 C119.31 68.61, 136.19 49.79, 177.97 2.33 M107.51 89.48 C135 57.51, 166.52 22.27, 183.62 1.94 M107.51 89.48 C132.32 59.93, 158.08 31.37, 183.62 1.94 M113.16 89.09 C136.56 64.66, 156.93 41.43, 188.6 2.3 M113.16 89.09 C141.74 57.36, 167.65 25.59, 188.6 2.3 M118.14 89.45 C143.74 60.64, 172.46 28.88, 194.25 1.9 M118.14 89.45 C136.19 67.49, 155.27 46.44, 194.25 1.9 M123.79 89.05 C142.02 69.25, 159.7 49.86, 199.23 2.26 M123.79 89.05 C144.96 64.57, 165.66 40.55, 199.23 2.26 M128.77 89.42 C145.35 71.41, 164.99 50.7, 204.88 1.87 M128.77 89.42 C151.36 63.17, 175 34.83, 204.88 1.87 M134.42 89.02 C157.71 64.49, 181.24 37.1, 209.86 2.23 M134.42 89.02 C163.17 55.49, 192.81 21.2, 209.86 2.23 M139.4 89.38 C160.93 64.18, 180.96 43.22, 215.51 1.83 M139.4 89.38 C167.79 56.26, 197.28 23.53, 215.51 1.83 M145.05 88.99 C167.78 66.09, 184.88 41.98, 220.49 2.19 M145.05 88.99 C161.7 69.8, 179.3 49.59, 220.49 2.19 M150.03 89.35 C174.94 57.97, 202.66 28.84, 225.48 2.55 M150.03 89.35 C174.38 62.05, 199.45 33.13, 225.48 2.55 M155.02 89.71 C176.85 61.67, 201.79 35.58, 231.12 2.16 M155.02 89.71 C185.01 54.83, 214.56 21.39, 231.12 2.16 M160.66 89.31 C182.28 64.81, 200.78 41.78, 236.11 2.52 M160.66 89.31 C182.03 63.32, 202.98 40.05, 236.11 2.52 M165.65 89.67 C195.32 52.74, 225.86 19.51, 241.75 2.13 M165.65 89.67 C183.32 69.78, 201.2 49, 241.75 2.13 M171.29 89.28 C190 69.54, 208.51 46.01, 246.74 2.49 M171.29 89.28 C188.15 67.32, 206.56 46.87, 246.74 2.49 M176.28 89.64 C206.45 59.07, 234.08 25.84, 252.38 2.09 M176.28 89.64 C202.42 57.67, 231.5 26.17, 252.38 2.09 M181.92 89.24 C197.75 68.95, 213.98 50.22, 257.37 2.45 M181.92 89.24 C202.46 65.87, 221.61 43.07, 257.37 2.45 M186.91 89.6 C210.4 62.48, 232.01 37.94, 263.01 2.06 M186.91 89.6 C209.67 60.93, 235.88 33.54, 263.01 2.06 M192.55 89.21 C222.26 54.89, 250.23 23.76, 268 2.42 M192.55 89.21 C208.76 72.38, 223.16 54.48, 268 2.42 M197.54 89.57 C227.57 56.95, 253.62 21.21, 273.64 2.02 M197.54 89.57 C222.24 61.52, 246.63 33.69, 273.64 2.02 M203.18 89.17 C234.64 57.22, 259.75 24.4, 278.63 2.38 M203.18 89.17 C219.74 69.19, 238.38 49.2, 278.63 2.38 M208.17 89.53 C238.4 56.57, 263.87 24.19, 284.27 1.99 M208.17 89.53 C231.71 61.83, 254.06 34.92, 284.27 1.99 M213.81 89.14 C243.91 55.98, 269.87 24.25, 289.26 2.35 M213.81 89.14 C237.65 60.28, 261.53 33.66, 289.26 2.35 M218.8 89.5 C246.79 57.5, 270.59 25.87, 294.9 1.95 M218.8 89.5 C242.83 63.32, 266.08 35.6, 294.9 1.95 M224.44 89.1 C252.86 55.99, 278.92 23.95, 299.89 2.31 M224.44 89.1 C251.45 59.29, 276.65 30, 299.89 2.31 M229.43 89.46 C250.65 63.07, 272.98 36.43, 305.53 1.92 M229.43 89.46 C250.23 65.38, 269.28 43.7, 305.53 1.92 M235.07 89.07 C255.17 66.35, 273.81 44.67, 310.52 2.28 M235.07 89.07 C262.89 57.24, 290.28 25.75, 310.52 2.28 M240.06 89.43 C262.63 61.96, 289 33.5, 315.51 2.64 M240.06 89.43 C269.42 57.21, 298.53 22.86, 315.51 2.64 M245.05 89.79 C262.78 70.34, 279.24 50.55, 321.15 2.24 M245.05 89.79 C274.97 56.78, 301.53 23.87, 321.15 2.24 M250.69 89.4 C266.89 67.16, 286.89 47.8, 326.14 2.6 M250.69 89.4 C269.99 67.51, 286.78 47.43, 326.14 2.6 M255.68 89.76 C275.54 66.66, 293.07 45.95, 331.78 2.21 M255.68 89.76 C279.83 60.44, 304.5 31.37, 331.78 2.21 M261.32 89.36 C277.69 68.7, 295.68 48.31, 336.77 2.57 M261.32 89.36 C279.78 66.68, 299.49 45.67, 336.77 2.57 M266.31 89.72 C286.02 66.18, 307.55 42.57, 342.41 2.17 M266.31 89.72 C289.53 62.9, 314.17 35.23, 342.41 2.17 M271.95 89.33 C300.59 57.39, 329.34 24.54, 347.4 2.54 M271.95 89.33 C299.53 57.08, 327.87 25.95, 347.4 2.54 M276.94 89.69 C297.3 66.51, 318.01 42.01, 353.04 2.14 M276.94 89.69 C294.43 71.6, 309.03 52.27, 353.04 2.14 M282.58 89.29 C305.77 65.37, 325.23 41.38, 358.03 2.5 M282.58 89.29 C300.19 70.29, 317.54 49.68, 358.03 2.5 M287.57 89.65 C309.4 61.2, 333.13 36.03, 363.67 2.11 M287.57 89.65 C316.01 55.2, 347.28 20.2, 363.67 2.11 M293.21 89.26 C312.59 64.86, 331.76 42.33, 368.66 2.47 M293.21 89.26 C321.08 56.58, 348.8 23.84, 368.66 2.47 M298.2 89.62 C319.37 66.15, 340.19 39.14, 374.3 2.07 M298.2 89.62 C317.27 67.63, 335.22 44.86, 374.3 2.07 M303.84 89.22 C335.57 54.57, 362.36 18.03, 379.29 2.43 M303.84 89.22 C322.82 69.42, 341.08 47.75, 379.29 2.43 M308.83 89.58 C325.23 69.57, 343.81 48.4, 384.93 2.04 M308.83 89.58 C330.19 67.07, 348.45 43.4, 384.93 2.04 M314.47 89.19 C332.13 69.76, 348.37 50.74, 388.61 3.91 M314.47 89.19 C329.2 72.19, 345.02 53.92, 388.61 3.91 M319.46 89.55 C334.81 72.93, 350.51 53.88, 392.28 5.78 M319.46 89.55 C342.69 63.61, 366.4 35.98, 392.28 5.78 M325.1 89.15 C347.12 64.9, 365.05 42.35, 396.61 6.89 M325.1 89.15 C344.82 67.11, 366.26 43.42, 396.61 6.89 M330.09 89.51 C356.08 59.28, 383.13 29.66, 398.32 11.02 M330.09 89.51 C355.99 58.94, 383.11 27.78, 398.32 11.02 M335.08 89.87 C358.44 64.84, 384.04 34.18, 400.68 14.4 M335.08 89.87 C351.06 70.55, 367.34 52.13, 400.68 14.4 M340.72 89.48 C362.85 65.35, 384.14 39.93, 401.73 19.29 M340.72 89.48 C358.3 68.22, 374.84 48.14, 401.73 19.29 M345.71 89.84 C357.99 74.62, 372.46 61.9, 402.78 24.18 M345.71 89.84 C364.87 69.77, 383.11 47.24, 402.78 24.18 M351.35 89.45 C361.01 74.75, 375 62.81, 402.52 30.58 M351.35 89.45 C365.58 72.4, 380.09 56.67, 402.52 30.58 M356.34 89.81 C372.34 73.48, 387.75 53.6, 402.26 36.98 M356.34 89.81 C370.96 73.99, 383.56 58.86, 402.26 36.98 M361.98 89.41 C377.19 74.15, 391.55 56.88, 402.65 42.62 M361.98 89.41 C372.18 75.41, 383.79 63.82, 402.65 42.62 M366.97 89.77 C377.92 76.21, 389.36 67.8, 402.39 49.02 M366.97 89.77 C380.48 74.35, 393.88 58.37, 402.39 49.02 M372.61 89.38 C380 83.2, 384.99 74.54, 402.13 55.41 M372.61 89.38 C379.23 81.07, 386.85 71.78, 402.13 55.41 M378.25 88.98 C388.19 79.31, 396.33 65.47, 402.53 61.06 M378.25 88.98 C388.13 78.2, 397.03 66.46, 402.53 61.06 M383.89 88.59 C388.31 83.35, 394.27 78.16, 402.26 67.46 M383.89 88.59 C388.01 84.41, 391.34 78.85, 402.26 67.46 M388.88 88.95 C390.83 82.66, 396.38 79.56, 402 73.85 M388.88 88.95 C393.6 84.44, 397.11 79.14, 402 73.85" stroke="#69db7c" stroke-width="0.5" fill="none"></path><path d="M22.25 0 M22.25 0 C148.75 0.66, 274.43 1.27, 377.75 0 M377.75 0 C391.72 0.19, 400.45 6.87, 400 22.25 M400 22.25 C401.73 38.03, 398.84 51.01, 400 66.75 M400 66.75 C401.01 80.44, 393.79 90.62, 377.75 89 M377.75 89 C261.23 90.54, 144.65 90.05, 22.25 89 M22.25 89 C9.18 88.26, 1.23 80.99, 0 66.75 M0 66.75 C-1.55 51.09, 1.45 33.54, 0 22.25 M0 22.25 C1.99 5.84, 7.26 -1.12, 22.25 0" stroke="#1971c2" stroke-width="1.5" fill="none" stroke-dasharray="8 9"></path></g><g transform="translate(943.7220865529541 227.9849079704619) rotate(0 111.93991088867188 25)"><text x="111.93991088867188" y="0" font-family="Virgil, Segoe UI Emoji" font-size="20px" fill="#1971c2" text-anchor="middle" style="white-space: pre;" direction="ltr" dominant-baseline="text-before-edge">Extension Point 1 (EP1)</text><text x="111.93991088867188" y="25" font-family="Virgil, Segoe UI Emoji" font-size="20px" fill="#1971c2" text-anchor="middle" style="white-space: pre;" direction="ltr" dominant-baseline="text-before-edge">micro frontend</text></g><g stroke-linecap="round" transform="translate(817.8235264748309 679.6130264363351) rotate(0 74.3167495187223 23.285914849199628)"><path d="M4.71 1.45 C4.71 1.45, 4.71 1.45, 4.71 1.45 M4.71 1.45 C4.71 1.45, 4.71 1.45, 4.71 1.45 M1.83 10.86 C5.81 7.89, 7.81 5.72, 11.01 0.3 M1.83 10.86 C5.79 6.67, 8.12 2.6, 11.01 0.3 M2.22 16.51 C5.82 12.98, 12.41 6.61, 14.69 2.17 M2.22 16.51 C4.44 12.41, 7.79 9.42, 14.69 2.17 M1.96 22.9 C6.96 17.97, 11.69 13.48, 19.67 2.53 M1.96 22.9 C6.97 16.93, 11.32 11.72, 19.67 2.53 M2.36 28.55 C6.7 24.48, 14.26 17.66, 25.32 2.13 M2.36 28.55 C8.69 20.85, 15.85 11.47, 25.32 2.13 M2.09 34.95 C10.91 26.3, 20.47 14.98, 30.3 2.49 M2.09 34.95 C12.41 22.6, 23.68 9.43, 30.3 2.49 M3.14 39.83 C12.81 28.5, 20.9 21.27, 35.29 2.85 M3.14 39.83 C14.66 25.64, 27.41 12.15, 35.29 2.85 M4.2 44.72 C16.23 33.54, 22.86 21.46, 40.93 2.46 M4.2 44.72 C12.02 35.41, 20.9 25.23, 40.93 2.46 M7.87 46.59 C19.68 30.45, 34.2 16.5, 45.92 2.82 M7.87 46.59 C20.02 33.22, 33.17 18, 45.92 2.82 M12.86 46.95 C23.61 32.03, 37.43 18.75, 51.56 2.42 M12.86 46.95 C27.89 28.88, 42.81 12.27, 51.56 2.42 M18.5 46.56 C29.95 33.87, 38.34 22.48, 56.55 2.78 M18.5 46.56 C29.21 33.06, 39.46 22.1, 56.55 2.78 M23.49 46.92 C37.94 27.27, 53.54 11.23, 62.19 2.39 M23.49 46.92 C32.46 37.26, 41.5 26.64, 62.19 2.39 M28.47 47.28 C38.24 37.63, 47.75 24.46, 67.18 2.75 M28.47 47.28 C36.69 35.75, 46.08 25.66, 67.18 2.75 M34.12 46.88 C49.9 32.3, 63.37 15.36, 72.17 3.11 M34.12 46.88 C46.81 30.53, 62.12 14.88, 72.17 3.11 M39.1 47.24 C47.13 36.33, 55.2 26.99, 77.81 2.72 M39.1 47.24 C50.01 35.24, 59.55 23.49, 77.81 2.72 M44.75 46.85 C57.36 32.43, 68.13 20.36, 82.8 3.08 M44.75 46.85 C55.72 32.12, 69.7 18.78, 82.8 3.08 M49.73 47.21 C65.51 28.84, 79.88 13.36, 88.44 2.68 M49.73 47.21 C58.47 38.73, 65.5 29.32, 88.44 2.68 M55.38 46.81 C70.94 30.77, 82.52 11.67, 93.43 3.04 M55.38 46.81 C67.63 32.38, 79.9 18.49, 93.43 3.04 M60.36 47.17 C77.4 31.28, 88.51 14.56, 99.07 2.65 M60.36 47.17 C68.48 36.93, 78.64 26.7, 99.07 2.65 M66.01 46.78 C82.05 29.92, 93.27 13.95, 104.06 3.01 M66.01 46.78 C77.97 32.98, 88.53 19.63, 104.06 3.01 M70.99 47.14 C87.27 29.55, 99.62 13.48, 109.7 2.61 M70.99 47.14 C83.36 32.15, 95.44 19.1, 109.7 2.61 M75.98 47.5 C90.95 30.74, 101.37 14.5, 114.69 2.97 M75.98 47.5 C88.4 34.38, 100.32 19.68, 114.69 2.97 M81.62 47.11 C96.16 30.57, 108.13 14.75, 119.68 3.33 M81.62 47.11 C95.41 31.92, 107.79 17.37, 119.68 3.33 M86.61 47.47 C96.62 33.97, 108.03 19.91, 125.32 2.94 M86.61 47.47 C97.49 34.73, 106.93 24.11, 125.32 2.94 M92.25 47.07 C102.22 35.95, 111.04 25.57, 130.31 3.3 M92.25 47.07 C106.45 30.93, 120.08 15.28, 130.31 3.3 M97.24 47.43 C107.92 33.01, 122.71 17.86, 135.95 2.9 M97.24 47.43 C112.29 31.11, 127.33 12.94, 135.95 2.9 M102.88 47.04 C112.8 36.46, 121.53 25.55, 142.9 1 M102.88 47.04 C119.09 29.5, 132.26 11.99, 142.9 1 M107.87 47.4 C115.66 35.36, 126.84 26.15, 145.92 3.62 M107.87 47.4 C117.94 36.17, 125.65 26.54, 145.92 3.62 M112.86 47.76 C122.76 35.82, 130.72 26.13, 148.94 6.25 M112.86 47.76 C124.17 33.7, 135.74 19.7, 148.94 6.25 M118.5 47.36 C125.02 38.22, 132.71 29.68, 150.65 10.38 M118.5 47.36 C125.88 37.17, 134.74 28.64, 150.65 10.38 M123.49 47.72 C129.52 39.18, 137.68 30.95, 150.39 16.78 M123.49 47.72 C131.54 38.68, 140.74 28.78, 150.39 16.78 M129.13 47.33 C137.58 38.74, 145.72 29.61, 150.13 23.18 M129.13 47.33 C136.15 38.24, 144.24 30.41, 150.13 23.18 M134.12 47.69 C138.31 43.5, 142.91 37.54, 149.86 29.57 M134.12 47.69 C138.52 44.11, 140.44 39.36, 149.86 29.57 M139.11 48.05 C143.4 45.04, 144.72 42.17, 150.26 35.22 M139.11 48.05 C141.98 45.53, 144.89 41.65, 150.26 35.22" stroke="#ffd43b" stroke-width="0.5" fill="none"></path><path d="M11.64 0 M11.64 0 C48.92 -2.17, 87.65 -0.67, 136.99 0 M11.64 0 C60.25 0.31, 111 -0.07, 136.99 0 M136.99 0 C144.13 1.08, 149.54 3.45, 148.63 11.64 M136.99 0 C143.92 -1.76, 148.7 5.59, 148.63 11.64 M148.63 11.64 C148.38 19.43, 147.86 28.32, 148.63 34.93 M148.63 11.64 C149.46 19.35, 148.55 27.87, 148.63 34.93 M148.63 34.93 C149.64 43.97, 145.36 47.76, 136.99 46.57 M148.63 34.93 C146.46 42.49, 147.04 45.91, 136.99 46.57 M136.99 46.57 C92.34 45.18, 50.5 45.12, 11.64 46.57 M136.99 46.57 C109.85 47.74, 82.76 47.59, 11.64 46.57 M11.64 46.57 C4.96 44.61, 1.62 40.86, 0 34.93 M11.64 46.57 C5.8 45.74, -0.96 43.33, 0 34.93 M0 34.93 C0.34 24.44, 1.37 15.38, 0 11.64 M0 34.93 C0.15 25.48, 0.55 17.45, 0 11.64 M0 11.64 C-0.04 4.09, 5.11 -1.41, 11.64 0 M0 11.64 C-1.87 4.95, 3.08 -0.2, 11.64 0" stroke="#2f9e44" stroke-width="1" fill="none"></path></g><g transform="translate(832.7205143358383 690.5209503000486) rotate(0 59.419761657714844 12.377990985486122)"><text x="59.419761657714844" y="0" font-family="Virgil, Segoe UI Emoji" font-size="19.804785576777807px" fill="#1971c2" text-anchor="middle" style="white-space: pre;" direction="ltr" dominant-baseline="text-before-edge">API (state)</text></g><g stroke-linecap="round" transform="translate(817.9412262130104 735.950596702539) rotate(0 74.3167495187223 23.285914849199685)"><path d="M4.71 1.45 C4.71 1.45, 4.71 1.45, 4.71 1.45 M4.71 1.45 C4.71 1.45, 4.71 1.45, 4.71 1.45 M1.83 10.86 C6.47 6.82, 7.81 1.28, 11.01 0.3 M1.83 10.86 C4.05 8.88, 6.18 5.96, 11.01 0.3 M2.22 16.51 C3.37 14.5, 6.52 11.08, 14.69 2.17 M2.22 16.51 C6.43 13.46, 7.98 9.15, 14.69 2.17 M1.96 22.9 C7.16 17.99, 10.45 13.88, 19.67 2.53 M1.96 22.9 C5.46 18.92, 9.73 13.94, 19.67 2.53 M2.36 28.55 C7.07 24.29, 11.88 17.78, 25.32 2.13 M2.36 28.55 C9.46 20.6, 17.44 11.07, 25.32 2.13 M2.09 34.95 C11.47 24.49, 17.11 16.09, 30.3 2.49 M2.09 34.95 C9.53 26.59, 18.86 16.84, 30.3 2.49 M3.14 39.83 C14.94 25.79, 27.94 12.34, 35.29 2.85 M3.14 39.83 C14.94 25.9, 27.86 11.06, 35.29 2.85 M4.2 44.72 C17.14 31.47, 32.36 12.75, 40.93 2.46 M4.2 44.72 C13.27 33.56, 22.52 23.23, 40.93 2.46 M7.87 46.59 C21.7 31.6, 34.92 15.47, 45.92 2.82 M7.87 46.59 C19.15 33.03, 29.14 20.49, 45.92 2.82 M12.86 46.95 C20.77 36.45, 31.07 28.53, 51.56 2.42 M12.86 46.95 C26.12 33.58, 38.43 17.86, 51.56 2.42 M18.5 46.56 C25.34 35.36, 36.37 26.82, 56.55 2.78 M18.5 46.56 C28.98 33.89, 39.79 22.41, 56.55 2.78 M23.49 46.92 C37.15 33.36, 50.16 16.23, 62.19 2.39 M23.49 46.92 C35.91 33.61, 46.39 20.93, 62.19 2.39 M28.47 47.28 C43 32.82, 56.66 16.35, 67.18 2.75 M28.47 47.28 C38.15 33.92, 49.22 22.94, 67.18 2.75 M34.12 46.88 C45.83 32.44, 58.04 23.15, 72.17 3.11 M34.12 46.88 C48.67 30.3, 63.09 13.14, 72.17 3.11 M39.1 47.24 C48.41 38.93, 55.28 28.12, 77.81 2.72 M39.1 47.24 C47.97 36.25, 57.92 24.29, 77.81 2.72 M44.75 46.85 C60.15 30.86, 73.71 10.78, 82.8 3.08 M44.75 46.85 C60.05 29.89, 74.3 11.98, 82.8 3.08 M49.73 47.21 C59.54 35.83, 70.93 24.4, 88.44 2.68 M49.73 47.21 C58.16 38, 65.88 27.39, 88.44 2.68 M55.38 46.81 C64.75 31.47, 77.97 19.53, 93.43 3.04 M55.38 46.81 C68.14 32.87, 79.74 18.26, 93.43 3.04 M60.36 47.17 C74.23 31.79, 86.87 16.9, 99.07 2.65 M60.36 47.17 C69.99 35.8, 80.93 23.91, 99.07 2.65 M66.01 46.78 C80.48 31.87, 92.64 15.86, 104.06 3.01 M66.01 46.78 C80.8 30.23, 95.35 13.96, 104.06 3.01 M70.99 47.14 C83.75 32.98, 95.65 19.18, 109.7 2.61 M70.99 47.14 C82.61 34.33, 93.54 21.92, 109.7 2.61 M75.98 47.5 C86.05 32.74, 100.74 21.5, 114.69 2.97 M75.98 47.5 C91.71 30.94, 106.37 13.51, 114.69 2.97 M81.62 47.11 C93.23 35.21, 103.08 21.23, 119.68 3.33 M81.62 47.11 C91.2 35.76, 102.53 24.12, 119.68 3.33 M86.61 47.47 C95.22 33.74, 108.78 22.1, 125.32 2.94 M86.61 47.47 C100.16 32.58, 113.14 15.74, 125.32 2.94 M92.25 47.07 C102.9 36.42, 114.75 23.42, 130.31 3.3 M92.25 47.07 C99.96 36, 108.8 25.77, 130.31 3.3 M97.24 47.43 C104.6 36.14, 117.1 27.16, 135.95 2.9 M97.24 47.43 C107.94 33.64, 119.78 20.63, 135.95 2.9 M102.88 47.04 C115.92 28.81, 131.05 11.75, 142.9 1 M102.88 47.04 C113.02 33.09, 125.55 21.33, 142.9 1 M107.87 47.4 C117.58 35.87, 126.3 27.01, 145.92 3.62 M107.87 47.4 C115.92 37.77, 123.73 29.5, 145.92 3.62 M112.86 47.76 C122.85 32.57, 137.11 21.57, 148.94 6.25 M112.86 47.76 C124.56 35.52, 134.38 22.88, 148.94 6.25 M118.5 47.36 C129 36.74, 137.15 27.42, 150.65 10.38 M118.5 47.36 C129.17 34.84, 139.22 22.03, 150.65 10.38 M123.49 47.72 C132.06 36.81, 141.55 24.02, 150.39 16.78 M123.49 47.72 C130.93 38.1, 139.57 27.42, 150.39 16.78 M129.13 47.33 C132.71 41.07, 137.69 36.88, 150.13 23.18 M129.13 47.33 C134.36 40.83, 140.64 34.76, 150.13 23.18 M134.12 47.69 C139.69 41.09, 146.36 33.18, 149.86 29.57 M134.12 47.69 C140.29 41.94, 144.88 36.37, 149.86 29.57 M139.11 48.05 C144.85 42.67, 148.2 39.61, 150.26 35.22 M139.11 48.05 C141.41 45.41, 144.63 41.31, 150.26 35.22" stroke="#ffec99" stroke-width="0.5" fill="none"></path><path d="M11.64 0 M11.64 0 C38.14 -1.26, 61.53 2.1, 136.99 0 M11.64 0 C40.61 0.01, 69.72 -1.22, 136.99 0 M136.99 0 C142.78 1.63, 147.87 3, 148.63 11.64 M136.99 0 C146.73 -0.24, 148.14 3.85, 148.63 11.64 M148.63 11.64 C147.09 18.53, 148.12 21.75, 148.63 34.93 M148.63 11.64 C148.7 18.66, 148.24 24.68, 148.63 34.93 M148.63 34.93 C150.1 42.55, 144.99 47.09, 136.99 46.57 M148.63 34.93 C149.99 41.79, 143.06 48.37, 136.99 46.57 M136.99 46.57 C110.04 47.76, 81.02 45.87, 11.64 46.57 M136.99 46.57 C109.1 46.91, 83.74 47.16, 11.64 46.57 M11.64 46.57 C2.84 47.87, 1.1 43.79, 0 34.93 M11.64 46.57 C4.59 46.56, -1.79 41.84, 0 34.93 M0 34.93 C1.51 25.13, 0.41 17.84, 0 11.64 M0 34.93 C0.15 26.18, -0.64 18.03, 0 11.64 M0 11.64 C-0.48 3.38, 2.91 -1.59, 11.64 0 M0 11.64 C-0.47 4.37, 5.5 -1.15, 11.64 0" stroke="#2f9e44" stroke-width="1" fill="none"></path></g><g transform="translate(862.963893090131 746.8585205662524) rotate(0 29.294082641601562 12.377990985486122)"><text x="29.294082641601562" y="0" font-family="Virgil, Segoe UI Emoji" font-size="19.804785576777807px" fill="#1971c2" text-anchor="middle" style="white-space: pre;" direction="ltr" dominant-baseline="text-before-edge">React</text></g><g stroke-linecap="round" transform="translate(817.8870896977446 792.6284894602119) rotate(0 74.3167495187223 23.285914849199685)"><path d="M4.71 1.45 C4.71 1.45, 4.71 1.45, 4.71 1.45 M4.71 1.45 C4.71 1.45, 4.71 1.45, 4.71 1.45 M1.83 10.86 C3.94 8.56, 5.36 6.2, 11.01 0.3 M1.83 10.86 C4.85 6.55, 8.47 1.87, 11.01 0.3 M2.22 16.51 C4.34 13.8, 9.03 11.04, 14.69 2.17 M2.22 16.51 C6.89 12.57, 9.47 6.77, 14.69 2.17 M1.96 22.9 C7.55 16.32, 15.66 7.03, 19.67 2.53 M1.96 22.9 C6.5 17.24, 12.07 12.46, 19.67 2.53 M2.36 28.55 C11.74 20.29, 17.54 9.54, 25.32 2.13 M2.36 28.55 C7.23 22.42, 12.62 17.58, 25.32 2.13 M2.09 34.95 C12.78 24.98, 21.42 12.71, 30.3 2.49 M2.09 34.95 C10.67 23.74, 21.59 12.72, 30.3 2.49 M3.14 39.83 C10.78 30.75, 23.56 19.96, 35.29 2.85 M3.14 39.83 C11.43 30.07, 19.16 21.09, 35.29 2.85 M4.2 44.72 C14.46 33.78, 22.23 21.73, 40.93 2.46 M4.2 44.72 C18.37 28.51, 31.58 13.95, 40.93 2.46 M7.87 46.59 C19.82 33.1, 27.71 23.65, 45.92 2.82 M7.87 46.59 C17.97 34.7, 27.13 23.04, 45.92 2.82 M12.86 46.95 C25.57 33.64, 38.2 17.33, 51.56 2.42 M12.86 46.95 C26.26 31.51, 38.25 17.06, 51.56 2.42 M18.5 46.56 C31.49 29.34, 47.94 13.14, 56.55 2.78 M18.5 46.56 C30.94 32.08, 42.74 18.86, 56.55 2.78 M23.49 46.92 C35.79 32.26, 48.59 18.77, 62.19 2.39 M23.49 46.92 C35.51 33.97, 47.04 20.16, 62.19 2.39 M28.47 47.28 C44.88 28.65, 60.16 14.08, 67.18 2.75 M28.47 47.28 C41.3 32.91, 54.47 17.86, 67.18 2.75 M34.12 46.88 C48.47 30.86, 63.16 12.12, 72.17 3.11 M34.12 46.88 C41.65 38.23, 49.6 27.74, 72.17 3.11 M39.1 47.24 C46.82 38.57, 58.03 27.67, 77.81 2.72 M39.1 47.24 C54.81 30.24, 69.64 12.92, 77.81 2.72 M44.75 46.85 C59.38 30.59, 71.91 13.61, 82.8 3.08 M44.75 46.85 C56.09 35.02, 67.11 21.21, 82.8 3.08 M49.73 47.21 C56.24 39.28, 64.88 28.34, 88.44 2.68 M49.73 47.21 C59.55 35.94, 67.43 26.06, 88.44 2.68 M55.38 46.81 C64.48 39.31, 71.18 27.24, 93.43 3.04 M55.38 46.81 C69.67 28.91, 84.79 11.45, 93.43 3.04 M60.36 47.17 C67.29 40.01, 76.59 28.59, 99.07 2.65 M60.36 47.17 C68.44 36.94, 77.33 27.53, 99.07 2.65 M66.01 46.78 C76.84 31.92, 88.82 19.02, 104.06 3.01 M66.01 46.78 C77.2 33.42, 90.6 17.94, 104.06 3.01 M70.99 47.14 C83.86 31.61, 99.39 12.15, 109.7 2.61 M70.99 47.14 C84.92 30.74, 100.23 13.22, 109.7 2.61 M75.98 47.5 C83.77 37.66, 95.78 25.28, 114.69 2.97 M75.98 47.5 C87.23 34.3, 98.02 22.13, 114.69 2.97 M81.62 47.11 C91.83 35.56, 103.21 23.21, 119.68 3.33 M81.62 47.11 C91.26 34.99, 100.65 24.85, 119.68 3.33 M86.61 47.47 C96.29 35.34, 104.03 26.98, 125.32 2.94 M86.61 47.47 C102.03 29.55, 116.4 12.13, 125.32 2.94 M92.25 47.07 C99.76 36.44, 109.39 28.15, 130.31 3.3 M92.25 47.07 C104.95 32.86, 118.12 18.72, 130.31 3.3 M97.24 47.43 C106.93 36.98, 115.09 27.53, 135.95 2.9 M97.24 47.43 C106.08 37.53, 115.03 27.89, 135.95 2.9 M102.88 47.04 C112.34 35.88, 124.51 22.46, 142.9 1 M102.88 47.04 C113.19 36.33, 121.51 25.09, 142.9 1 M107.87 47.4 C115.93 34.99, 128.87 23.87, 145.92 3.62 M107.87 47.4 C117.87 36.14, 126.12 24.72, 145.92 3.62 M112.86 47.76 C128.51 31.86, 140.13 16.19, 148.94 6.25 M112.86 47.76 C121.17 37.51, 130.78 25.73, 148.94 6.25 M118.5 47.36 C127.61 39.29, 135.31 28.93, 150.65 10.38 M118.5 47.36 C130.78 34.11, 142.13 18.99, 150.65 10.38 M123.49 47.72 C133.58 36.37, 145.47 23.03, 150.39 16.78 M123.49 47.72 C131.61 38.64, 138.31 31.81, 150.39 16.78 M129.13 47.33 C136.68 41.03, 142.51 32.65, 150.13 23.18 M129.13 47.33 C134.35 41.58, 139.36 35.69, 150.13 23.18 M134.12 47.69 C140.66 41.84, 145.06 35.32, 149.86 29.57 M134.12 47.69 C137.8 42.69, 141.21 38.42, 149.86 29.57 M139.11 48.05 C144.2 43.64, 146.78 39.53, 150.26 35.22 M139.11 48.05 C142.3 45.18, 144.66 41.97, 150.26 35.22" stroke="#ffec99" stroke-width="0.5" fill="none"></path><path d="M11.64 0 M11.64 0 C51.02 -1.45, 91.07 -0.56, 136.99 0 M11.64 0 C49.77 1.4, 88.48 2.16, 136.99 0 M136.99 0 C145.8 0.54, 148.45 4.25, 148.63 11.64 M136.99 0 C142.71 0.58, 146.64 1.97, 148.63 11.64 M148.63 11.64 C148.5 18.52, 149.77 28.19, 148.63 34.93 M148.63 11.64 C147.89 18.24, 147.63 23.1, 148.63 34.93 M148.63 34.93 C150.63 42.94, 145.71 45.59, 136.99 46.57 M148.63 34.93 C148.9 41.45, 146.36 46.42, 136.99 46.57 M136.99 46.57 C110.12 44.34, 83.3 44.13, 11.64 46.57 M136.99 46.57 C100.08 46.46, 63.72 46.52, 11.64 46.57 M11.64 46.57 C2.11 47.61, -1.61 41.06, 0 34.93 M11.64 46.57 C5.2 44.39, 0.1 44.05, 0 34.93 M0 34.93 C-0.55 29.43, -1.78 21.16, 0 11.64 M0 34.93 C0.03 28.65, 0.86 21.4, 0 11.64 M0 11.64 C1.56 4.57, 3.59 -0.23, 11.64 0 M0 11.64 C-0.97 5.14, 3.82 -0.83, 11.64 0" stroke="#2f9e44" stroke-width="1" fill="none"></path></g><g transform="translate(864.8501557447873 803.5364133239256) rotate(0 27.353683471679688 12.377990985486122)"><text x="27.353683471679688" y="0" font-family="Virgil, Segoe UI Emoji" font-size="19.804785576777807px" fill="#1971c2" text-anchor="middle" style="white-space: pre;" direction="ltr" dominant-baseline="text-before-edge">Recoil</text></g><g stroke-opacity="0.5" fill-opacity="0.5" transform="translate(805.5329029541276 613.2354780123261) rotate(0 136.36976623535156 17.340574887701848)"><text x="0" y="0" font-family="Virgil, Segoe UI Emoji" font-size="27.744919820322988px" fill="#f08c00" text-anchor="start" style="white-space: pre;" direction="ltr" dominant-baseline="text-before-edge">Shared dependencies</text></g><g mask="url(#mask-gOCtLnnLulPAYlbgqNLjb)" stroke-linecap="round"><g transform="translate(1175.7865092358154 302.95898186698514) rotate(0 -0.8156317627496037 59.10673819323637)"><path d="M-0.56 -0.01 C-0.58 19.65, -1.22 98.43, -1.03 118.22" stroke="#1e1e1e" stroke-width="1.5" fill="none" stroke-dasharray="8 9"></path></g><g transform="translate(1175.7865092358154 302.95898186698514) rotate(0 -0.8156317627496037 59.10673819323637)"><path d="M-11.29 88.31 C-7.88 97.3, -4.75 101.64, -0.04 119.66" stroke="#1e1e1e" stroke-width="1.5" fill="none"></path></g><g transform="translate(1175.7865092358154 302.95898186698514) rotate(0 -0.8156317627496037 59.10673819323637)"><path d="M9.23 88.31 C8.09 97.21, 6.66 101.54, -0.04 119.66" stroke="#1e1e1e" stroke-width="1.5" fill="none"></path></g></g><mask id="mask-gOCtLnnLulPAYlbgqNLjb"><rect x="0" y="0" fill="#fff" width="1275.7865092358154" height="520.5411319855896"></rect><rect x="1125.3265635571042" y="349.25005692628736" fill="#000" width="100.91989135742188" height="25" opacity="1"></rect></mask><g stroke-opacity="0.5" fill-opacity="0.5" transform="translate(1125.3265635571042 349.25005692628736) rotate(0 49.644313915961334 12.815663133934152)"><text x="50.45994567871094" y="0" font-family="Virgil, Segoe UI Emoji" font-size="20px" fill="#1e1e1e" text-anchor="middle" style="white-space: pre;" direction="ltr" dominant-baseline="text-before-edge">references</text></g><g stroke-opacity="0.5" fill-opacity="0.5" transform="translate(921.8646163513381 124.26962068657508) rotate(0 56.93798065185547 17.5)"><text x="0" y="0" font-family="Virgil, Segoe UI Emoji" font-size="28px" fill="#1971c2" text-anchor="start" style="white-space: pre;" direction="ltr" dominant-baseline="text-before-edge">Remotes</text></g><g stroke-opacity="0.5" fill-opacity="0.5" transform="translate(31.41562064556382 571.04661029565) rotate(0 97.27991485595703 12.5)"><text x="0" y="0" font-family="Virgil, Segoe UI Emoji" font-size="20px" fill="#1e1e1e" text-anchor="start" style="white-space: pre;" direction="ltr" dominant-baseline="text-before-edge">http://app.corp.com/</text></g><g mask="url(#mask-Hsd7B2aaF-5TKvdgrrezz)" stroke-linecap="round"><g transform="translate(391.60308857127467 491.37899073545157) rotate(0 298.3914824531379 -3.0868403474964907)"><path d="M0.92 -0.94 C100.29 -1.96, 496.52 -4.45, 595.87 -5.24" stroke="#1e1e1e" stroke-width="1.5" fill="none" stroke-dasharray="8 9"></path></g><g transform="translate(391.60308857127467 491.37899073545157) rotate(0 298.3914824531379 -3.0868403474964907)"><path d="M566.19 4.09 C575.56 2.95, 582.44 -0.21, 596.06 -5.28" stroke="#1e1e1e" stroke-width="1.5" fill="none"></path></g><g transform="translate(391.60308857127467 491.37899073545157) rotate(0 298.3914824531379 -3.0868403474964907)"><path d="M566.04 -16.43 C575.61 -12.04, 582.53 -9.66, 596.06 -5.28" stroke="#1e1e1e" stroke-width="1.5" fill="none"></path></g></g><mask id="mask-Hsd7B2aaF-5TKvdgrrezz"><rect x="0" y="0" fill="#fff" width="1088.1480130087086" height="596.8041428925453"></rect><rect x="639.4156051112806" y="476.16641465690486" fill="#000" width="100.91989135742188" height="25" opacity="1"></rect></mask><g stroke-opacity="0.5" fill-opacity="0.5" transform="translate(639.4156051112807 476.16641465690464) rotate(0 50.578965913131924 12.125735731050327)"><text x="50.45994567871094" y="0" font-family="Virgil, Segoe UI Emoji" font-size="20px" fill="#1e1e1e" text-anchor="middle" style="white-space: pre;" direction="ltr" dominant-baseline="text-before-edge">references</text></g><g mask="url(#mask-f7e8YVnNvsarJkB-biPiO)" stroke-linecap="round"><g transform="translate(371.32137490965914 515.8443227341346) rotate(0 203.0709046416397 98.22894714004747)"><path d="M0.63 -0.5 C68.04 32.34, 337.95 164, 405.51 196.96" stroke="#f08c00" stroke-width="1.5" fill="none" stroke-dasharray="8 9"></path></g><g transform="translate(371.32137490965914 515.8443227341346) rotate(0 203.0709046416397 98.22894714004747)"><path d="M374.85 194.57 C388.14 196.47, 400.17 194.63, 405.55 195.62" stroke="#f08c00" stroke-width="1.5" fill="none"></path></g><g transform="translate(371.32137490965914 515.8443227341346) rotate(0 203.0709046416397 98.22894714004747)"><path d="M383.84 176.13 C393.65 185.2, 402.2 190.48, 405.55 195.62" stroke="#f08c00" stroke-width="1.5" fill="none"></path></g></g><mask id="mask-f7e8YVnNvsarJkB-biPiO"><rect x="0" y="0" fill="#fff" width="876.3838763365277" height="812.2326802113118"></rect><rect x="535.0726726201638" y="601.538501472723" fill="#000" width="77.55990600585938" height="25" opacity="1"></rect></mask><g stroke-opacity="0.5" fill-opacity="0.5" transform="translate(535.0726726201638 601.538501472723) rotate(0 39.31960693113513 12.534768401458905)"><text x="38.77995300292969" y="0" font-family="Virgil, Segoe UI Emoji" font-size="20px" fill="#f08c00" text-anchor="middle" style="white-space: pre;" direction="ltr" dominant-baseline="text-before-edge">provides</text></g><g stroke-opacity="0.5" fill-opacity="0.5" transform="translate(1009.2096156126686 687.0941356213291) rotate(0 196.02194213867188 41.28952422068056)"><text x="0" y="0" font-family="Virgil, Segoe UI Emoji" font-size="22.02107958436296px" fill="#f08c00" text-anchor="start" style="white-space: pre;" direction="ltr" dominant-baseline="text-before-edge">Core UI and EP1 provide API</text><text x="0" y="27.526349480453696" font-family="Virgil, Segoe UI Emoji" font-size="22.02107958436296px" fill="#f08c00" text-anchor="start" style="white-space: pre;" direction="ltr" dominant-baseline="text-before-edge">The highest compatible API version </text><text x="0" y="55.05269896090739" font-family="Virgil, Segoe UI Emoji" font-size="22.02107958436296px" fill="#f08c00" text-anchor="start" style="white-space: pre;" direction="ltr" dominant-baseline="text-before-edge">wins (shared as singleton)</text></g><g stroke-opacity="0.5" fill-opacity="0.5" transform="translate(1277.9252002448138 229.2077291809327) rotate(0 85.6005859375 23)"><text x="0" y="0" font-family="Helvetica, Segoe UI Emoji" font-size="20px" fill="#1e1e1e" text-anchor="start" style="white-space: pre;" direction="ltr" dominant-baseline="text-before-edge">http://ep1.corp.com</text><text x="0" y="23" font-family="Helvetica, Segoe UI Emoji" font-size="20px" fill="#1e1e1e" text-anchor="start" style="white-space: pre;" direction="ltr" dominant-baseline="text-before-edge">/remoteEntry.js</text></g><g stroke-opacity="0.5" fill-opacity="0.5" transform="translate(1291.2316381083244 442.9636913091373) rotate(0 79.4775390625 23)"><text x="0" y="0" font-family="Helvetica, Segoe UI Emoji" font-size="20px" fill="#1e1e1e" text-anchor="start" style="white-space: pre;" direction="ltr" dominant-baseline="text-before-edge">http://ds.corp.com</text><text x="0" y="23" font-family="Helvetica, Segoe UI Emoji" font-size="20px" fill="#1e1e1e" text-anchor="start" style="white-space: pre;" direction="ltr" dominant-baseline="text-before-edge">/remoteEntry.js</text></g><g stroke-opacity="0.5" fill-opacity="0.5" transform="translate(27.715762040435322 10) rotate(0 150.83584594726562 31.29830738083183)"><text x="0" y="0" font-family="Virgil, Segoe UI Emoji" font-size="50.077291809330944px" fill="#1971c2" text-anchor="start" style="white-space: pre;" direction="ltr" dominant-baseline="text-before-edge">Architecture</text></g></svg>